<svg width="39" height="39" viewBox="0 0 39 39" fill="none" xmlns="http://www.w3.org/2000/svg">
<rect width="38.817" height="38.817" rx="6.46949" fill="#00005B"/>
<path d="M15.9562 23.6771H9.93954L8.71034 27.4941C8.6966 27.5634 8.65746 27.625 8.6006 27.6669C8.54375 27.7088 8.47328 27.7279 8.40304 27.7205H5.36238C5.18447 27.7205 5.13595 27.6235 5.18447 27.4294L10.3924 12.501C10.4409 12.3393 10.4895 12.1937 10.5541 11.9997C10.6192 11.653 10.6517 11.301 10.6512 10.9484C10.6463 10.9079 10.657 10.867 10.681 10.834C10.705 10.801 10.7405 10.7783 10.7806 10.7704H14.9696C15.0828 10.7704 15.1637 10.819 15.1798 10.8998L21.0832 27.4779C21.1318 27.6558 21.0832 27.7367 20.9215 27.7367H17.5412C17.484 27.7422 17.4267 27.7274 17.3794 27.6948C17.3321 27.6623 17.2977 27.6141 17.2824 27.5588L15.9562 23.6771ZM10.8776 20.4585H14.9857C14.8887 20.1189 14.7593 19.7145 14.6138 19.294C14.4682 18.8735 14.3226 18.3883 14.1771 17.9031C14.0315 17.4178 13.8698 16.9165 13.708 16.4151C13.5463 15.9137 13.4007 15.4447 13.2713 14.9756C13.1419 14.5066 13.0287 14.1022 12.9155 13.7141H12.8832C12.7378 14.419 12.5542 15.1155 12.3333 15.8005C12.0906 16.5768 11.848 17.3855 11.5893 18.1942C11.379 19.019 11.1202 19.7792 10.8776 20.4585Z" fill="#9999FF"/>
<path d="M30.6743 22.1891H25.5472C25.6084 22.6995 25.7794 23.1906 26.0486 23.6286C26.3344 24.0645 26.7462 24.403 27.2293 24.599C27.883 24.8786 28.5886 25.0164 29.2995 25.0033C29.8643 24.993 30.4271 24.9334 30.9816 24.8254C31.4748 24.7608 31.9583 24.6359 32.421 24.4534C32.5019 24.3887 32.5504 24.4211 32.5504 24.5828V27.0574C32.5476 27.1232 32.5367 27.1883 32.5181 27.2515C32.4888 27.2969 32.4502 27.3355 32.4049 27.3647C31.8876 27.5919 31.3444 27.7548 30.7875 27.8499C30.0309 27.9954 29.2611 28.0605 28.4908 28.044C27.2616 28.044 26.2265 27.8499 25.3855 27.4779C24.594 27.1344 23.8956 26.6078 23.3476 25.9414C22.8355 25.3183 22.4558 24.5974 22.2316 23.8226C21.7576 22.2091 21.7802 20.4902 22.2963 18.8897C22.5542 18.0798 22.9661 17.3275 23.5093 16.6739C24.0442 16.0275 24.7115 15.5036 25.4663 15.1374C26.2265 14.7654 27.1322 14.636 28.1673 14.636C29.0297 14.616 29.8859 14.7872 30.6743 15.1374C31.3369 15.4246 31.9197 15.8687 32.3725 16.4312C32.8024 16.9837 33.131 17.6079 33.3429 18.2751C33.5486 18.9125 33.6523 19.5784 33.6502 20.2483C33.6502 20.6364 33.6341 20.9761 33.6179 21.2834C33.6017 21.5907 33.5694 21.8171 33.5532 21.9627C33.5461 22.0187 33.5195 22.0704 33.4781 22.1089C33.4367 22.1473 33.3832 22.17 33.3268 22.1729C33.2297 22.1729 33.0518 22.1891 32.793 22.2053C32.4816 22.2406 32.1683 22.2568 31.8549 22.2538C31.483 22.2538 31.0948 22.1891 30.6743 22.1891ZM25.5472 19.8277H28.9598C29.3804 19.8277 29.6877 19.8277 29.8818 19.8116C30.0147 19.8005 30.1426 19.756 30.2537 19.6822V19.5204C30.2544 19.317 30.2216 19.1148 30.1567 18.922C30.0151 18.4794 29.7334 18.0949 29.3542 17.8265C28.9749 17.5581 28.5186 17.4203 28.0541 17.434C27.6152 17.4094 27.1785 17.5124 26.7968 17.7305C26.4151 17.9486 26.1047 18.2726 25.903 18.6632C25.7143 19.0264 25.5937 19.4211 25.5472 19.8277Z" fill="#9999FF"/>
</svg>
