<svg width="39" height="39" viewBox="0 0 39 39" fill="none" xmlns="http://www.w3.org/2000/svg">
<rect width="38.82" height="38.82" rx="9.705" fill="white"/>
<mask id="mask0_2057_11271" style="mask-type:alpha" maskUnits="userSpaceOnUse" x="6" y="7" width="27" height="25">
<path d="M29.7544 30.6039C31.1758 31.67 33.3081 30.9593 31.3535 29.0047C25.49 23.3189 26.7338 7.68298 19.4489 7.68298C12.1639 7.68298 13.4077 23.3189 7.54421 29.0047C5.41204 31.1369 7.72188 31.67 9.14334 30.6039C14.6515 26.8726 14.2961 20.2984 19.4489 20.2984C24.6016 20.2984 24.2463 26.8726 29.7544 30.6039Z" fill="black"/>
</mask>
<g mask="url(#mask0_2057_11271)">
<path d="M29.7544 30.6039C31.1758 31.67 33.3081 30.9593 31.3535 29.0047C25.49 23.3189 26.7338 7.68298 19.4489 7.68298C12.1639 7.68298 13.4077 23.3189 7.54421 29.0047C5.41204 31.1369 7.72188 31.67 9.14334 30.6039C14.6515 26.8726 14.2961 20.2984 19.4489 20.2984C24.6016 20.2984 24.2463 26.8726 29.7544 30.6039Z" fill="#3186FF"/>
<g filter="url(#filter0_f_2057_11271)">
<path d="M5.60011 2.38768C5.16777 6.1966 8.45008 9.69667 12.9314 10.2053C17.4126 10.714 21.3959 8.03857 21.8283 4.22966C22.2606 0.420744 18.9783 -3.07933 14.497 -3.58798C10.0157 -4.09663 6.03245 -1.42123 5.60011 2.38768Z" fill="#FFE432"/>
</g>
<g filter="url(#filter1_f_2057_11271)">
<path d="M22.8778 14.8408C24.0006 19.6748 28.9157 22.6634 33.856 21.516C38.7963 20.3685 41.891 15.5196 40.7683 10.6855C39.6455 5.85145 34.7304 2.86286 29.7901 4.0103C24.8498 5.15774 21.755 10.0067 22.8778 14.8408Z" fill="#FC413D"/>
</g>
<g filter="url(#filter2_f_2057_11271)">
<path d="M-6.51933 18.0834C-5.10063 23.0723 1.28868 25.6267 7.7516 23.7888C14.2145 21.951 18.3037 16.4168 16.885 11.4279C15.4662 6.43901 9.07694 3.88461 2.61402 5.72248C-3.84889 7.56036 -7.93803 13.0945 -6.51933 18.0834Z" fill="#00B95C"/>
</g>
<g filter="url(#filter3_f_2057_11271)">
<path d="M-6.51933 18.0834C-5.10063 23.0723 1.28868 25.6267 7.7516 23.7888C14.2145 21.951 18.3037 16.4168 16.885 11.4279C15.4662 6.43901 9.07694 3.88461 2.61402 5.72248C-3.84889 7.56036 -7.93803 13.0945 -6.51933 18.0834Z" fill="#00B95C"/>
</g>
<g filter="url(#filter4_f_2057_11271)">
<path d="M-1.39102 22.2187C2.16547 25.8513 8.29053 25.6221 12.2897 21.7067C16.2888 17.7913 16.6477 11.6725 13.0912 8.03991C9.53472 4.40732 3.40965 4.63656 -0.5895 8.55194C-4.58866 12.4673 -4.94751 18.5861 -1.39102 22.2187Z" fill="#00B95C"/>
</g>
<g filter="url(#filter5_f_2057_11271)">
<path d="M17.2162 35.9186C18.3206 40.6735 22.9277 43.666 27.5065 42.6025C32.0853 41.539 34.9019 36.8223 33.7975 32.0674C32.6931 27.3125 28.086 24.32 23.5072 25.3835C18.9284 26.447 16.1118 31.1637 17.2162 35.9186Z" fill="#3186FF"/>
</g>
<g filter="url(#filter6_f_2057_11271)">
<path d="M9.40961 -2.06082C7.09709 3.09056 9.62714 9.24389 15.0606 11.683C20.4941 14.1222 26.7735 11.9235 29.086 6.7721C31.3985 1.62072 28.8685 -4.53261 23.435 -6.97176C18.0015 -9.4109 11.7221 -7.2122 9.40961 -2.06082Z" fill="#FBBC04"/>
</g>
<g filter="url(#filter7_f_2057_11271)">
<path d="M3.21476 47.6612C-2.38361 45.4636 7.18386 27.3816 9.56295 21.3213C11.9421 15.2611 18.4091 12.13 24.0074 14.3277C29.6058 16.5255 36.2416 28.6304 33.8624 34.6906C31.4832 40.7508 8.81315 49.8589 3.21476 47.6612Z" fill="#3186FF"/>
</g>
<g filter="url(#filter8_f_2057_11271)">
<path d="M37.1361 25.1555C35.6372 26.9048 31.726 26.0128 28.4 23.1631C25.0739 20.3134 23.5926 16.5852 25.0914 14.8358C26.5902 13.0865 30.5015 13.9786 33.8276 16.8283C37.1535 19.678 38.635 23.4062 37.1361 25.1555Z" fill="#749BFF"/>
</g>
<g filter="url(#filter9_f_2057_11271)">
<path d="M25.9476 16.2514C32.1121 20.4213 39.2107 20.6953 41.8029 16.8633C44.3951 13.0312 41.4992 6.54431 35.3347 2.37435C29.1702 -1.79561 22.0715 -2.06955 19.4793 1.76249C16.8871 5.59453 19.7831 12.0814 25.9476 16.2514Z" fill="#FC413D"/>
</g>
<g filter="url(#filter10_f_2057_11271)">
<path d="M5.70948 9.46921C4.18227 13.1533 4.68105 16.8599 6.82355 17.748C8.96604 18.6362 11.9409 16.3696 13.4681 12.6855C14.9953 9.00139 14.4966 5.29484 12.3541 4.40669C10.2116 3.51854 7.23669 5.7851 5.70948 9.46921Z" fill="#FFEE48"/>
</g>
</g>
<defs>
<filter id="filter0_f_2057_11271" x="3.1918" y="-6.01999" width="21.0446" height="18.6573" filterUnits="userSpaceOnUse" color-interpolation-filters="sRGB">
<feFlood flood-opacity="0" result="BackgroundImageFix"/>
<feBlend mode="normal" in="SourceGraphic" in2="BackgroundImageFix" result="shape"/>
<feGaussianBlur stdDeviation="1.18498" result="effect1_foregroundBlur_2057_11271"/>
</filter>
<filter id="filter1_f_2057_11271" x="11.1901" y="-7.69251" width="41.2658" height="40.9113" filterUnits="userSpaceOnUse" color-interpolation-filters="sRGB">
<feFlood flood-opacity="0" result="BackgroundImageFix"/>
<feBlend mode="normal" in="SourceGraphic" in2="BackgroundImageFix" result="shape"/>
<feGaussianBlur stdDeviation="5.72879" result="effect1_foregroundBlur_2057_11271"/>
</filter>
<filter id="filter2_f_2057_11271" x="-16.5406" y="-4.61362" width="43.4466" height="38.7386" filterUnits="userSpaceOnUse" color-interpolation-filters="sRGB">
<feFlood flood-opacity="0" result="BackgroundImageFix"/>
<feBlend mode="normal" in="SourceGraphic" in2="BackgroundImageFix" result="shape"/>
<feGaussianBlur stdDeviation="4.87001" result="effect1_foregroundBlur_2057_11271"/>
</filter>
<filter id="filter3_f_2057_11271" x="-16.5406" y="-4.61362" width="43.4466" height="38.7386" filterUnits="userSpaceOnUse" color-interpolation-filters="sRGB">
<feFlood flood-opacity="0" result="BackgroundImageFix"/>
<feBlend mode="normal" in="SourceGraphic" in2="BackgroundImageFix" result="shape"/>
<feGaussianBlur stdDeviation="4.87001" result="effect1_foregroundBlur_2057_11271"/>
</filter>
<filter id="filter4_f_2057_11271" x="-13.5804" y="-4.28141" width="38.8609" height="38.8215" filterUnits="userSpaceOnUse" color-interpolation-filters="sRGB">
<feFlood flood-opacity="0" result="BackgroundImageFix"/>
<feBlend mode="normal" in="SourceGraphic" in2="BackgroundImageFix" result="shape"/>
<feGaussianBlur stdDeviation="4.87001" result="effect1_foregroundBlur_2057_11271"/>
</filter>
<filter id="filter5_f_2057_11271" x="7.72066" y="15.913" width="35.5723" height="36.1601" filterUnits="userSpaceOnUse" color-interpolation-filters="sRGB">
<feFlood flood-opacity="0" result="BackgroundImageFix"/>
<feBlend mode="normal" in="SourceGraphic" in2="BackgroundImageFix" result="shape"/>
<feGaussianBlur stdDeviation="4.62795" result="effect1_foregroundBlur_2057_11271"/>
</filter>
<filter id="filter6_f_2057_11271" x="0.164507" y="-16.3554" width="38.1666" height="37.4221" filterUnits="userSpaceOnUse" color-interpolation-filters="sRGB">
<feFlood flood-opacity="0" result="BackgroundImageFix"/>
<feBlend mode="normal" in="SourceGraphic" in2="BackgroundImageFix" result="shape"/>
<feGaussianBlur stdDeviation="4.19424" result="effect1_foregroundBlur_2057_11271"/>
</filter>
<filter id="filter7_f_2057_11271" x="-6.00736" y="6.134" width="47.858" height="49.3535" filterUnits="userSpaceOnUse" color-interpolation-filters="sRGB">
<feFlood flood-opacity="0" result="BackgroundImageFix"/>
<feBlend mode="normal" in="SourceGraphic" in2="BackgroundImageFix" result="shape"/>
<feGaussianBlur stdDeviation="3.74562" result="effect1_foregroundBlur_2057_11271"/>
</filter>
<filter id="filter8_f_2057_11271" x="17.8033" y="7.23705" width="26.621" height="25.5173" filterUnits="userSpaceOnUse" color-interpolation-filters="sRGB">
<feFlood flood-opacity="0" result="BackgroundImageFix"/>
<feBlend mode="normal" in="SourceGraphic" in2="BackgroundImageFix" result="shape"/>
<feGaussianBlur stdDeviation="3.35166" result="effect1_foregroundBlur_2057_11271"/>
</filter>
<filter id="filter9_f_2057_11271" x="12.8678" y="-6.60328" width="35.5466" height="31.8323" filterUnits="userSpaceOnUse" color-interpolation-filters="sRGB">
<feFlood flood-opacity="0" result="BackgroundImageFix"/>
<feBlend mode="normal" in="SourceGraphic" in2="BackgroundImageFix" result="shape"/>
<feGaussianBlur stdDeviation="2.83088" result="effect1_foregroundBlur_2057_11271"/>
</filter>
<filter id="filter10_f_2057_11271" x="-2.18291" y="-2.79338" width="23.5435" height="27.7414" filterUnits="userSpaceOnUse" color-interpolation-filters="sRGB">
<feFlood flood-opacity="0" result="BackgroundImageFix"/>
<feBlend mode="normal" in="SourceGraphic" in2="BackgroundImageFix" result="shape"/>
<feGaussianBlur stdDeviation="3.50368" result="effect1_foregroundBlur_2057_11271"/>
</filter>
</defs>
</svg>
