<svg width="39" height="39" viewBox="0 0 39 39" fill="none" xmlns="http://www.w3.org/2000/svg">
<rect width="38.82" height="38.82" rx="6.47" fill="#0057FF"/>
<path d="M14.2631 11.6957C14.9734 11.6957 15.629 11.7508 16.2301 11.9138C16.8311 12.0228 17.3229 12.2409 17.76 12.5135C18.1971 12.7861 18.525 13.1677 18.7435 13.6589C18.9621 14.149 19.0714 14.7493 19.0714 15.4035C19.0714 16.1662 18.9074 16.821 18.525 17.3116C18.1971 17.8017 17.6507 18.2379 16.995 18.565C17.9239 18.8376 18.6342 19.3277 19.0714 19.9824C19.5085 20.6367 19.7817 21.4544 19.7817 22.3812C19.7817 23.1439 19.6178 23.7987 19.3446 24.3439C19.0714 24.889 18.6342 25.3797 18.1425 25.7068C17.6507 26.0345 17.0497 26.307 16.394 26.4701C15.7383 26.6331 15.0826 26.7426 14.427 26.7426H7.10522V11.6957H14.2631ZM13.8259 17.8017C14.427 17.8017 14.9187 17.6382 15.3012 17.3656C15.6837 17.093 15.8476 16.6023 15.8476 16.0026C15.8476 15.6755 15.793 15.3484 15.6837 15.1304C15.5744 14.9123 15.4105 14.7487 15.1919 14.5852C14.9734 14.4761 14.7548 14.3671 14.4816 14.3126C14.2084 14.2581 13.9352 14.2581 13.6074 14.2581H10.4383V17.8017H13.8259ZM13.9899 24.2348C14.3177 24.2348 14.6455 24.1803 14.9187 24.1263C15.1919 24.0713 15.4651 23.9622 15.6837 23.7987C15.9022 23.6351 16.0662 23.4716 16.2301 23.199C16.3394 22.9264 16.4486 22.5987 16.4486 22.2177C16.4486 21.4544 16.2301 20.9092 15.793 20.5271C15.3558 20.2 14.7548 20.037 14.0445 20.037H10.4383V24.2348H13.9899ZM24.5353 24.1803C24.9725 24.6165 25.6281 24.8345 26.5024 24.8345C27.1034 24.8345 27.6498 24.671 28.0869 24.3984C28.5241 24.0707 28.7973 23.7442 28.9065 23.4165H31.5839C31.1468 24.7249 30.4911 25.6523 29.6169 26.2514C28.7426 26.7966 27.7045 27.1243 26.4477 27.1243C25.5735 27.1243 24.8085 26.9602 24.0982 26.6876C23.3879 26.415 22.8415 26.0339 22.3498 25.4887C21.858 24.9981 21.4755 24.3984 21.257 23.6891C20.9838 22.9804 20.8745 22.2177 20.8745 21.3448C20.8745 20.5271 20.9838 19.7644 21.257 19.0551C21.5302 18.3464 21.9126 17.7472 22.4044 17.202C22.8962 16.7114 23.4972 16.2752 24.1529 16.0026C24.8632 15.7301 25.5735 15.5665 26.4477 15.5665C27.3766 15.5665 28.1962 15.7301 28.9065 16.1117C29.6169 16.4933 30.1633 16.9294 30.6004 17.5837C31.0375 18.1834 31.3653 18.8915 31.5839 19.6553C31.6932 20.4186 31.7478 21.1818 31.6932 22.0541H23.7704C23.7704 22.9264 24.0982 23.7442 24.5353 24.1803ZM27.9777 18.4559C27.5952 18.0743 26.9941 17.8562 26.2838 17.8562C25.7921 17.8562 25.4096 17.9647 25.0817 18.1288C24.7539 18.2924 24.5353 18.5099 24.3168 18.7285C24.0982 18.9471 23.9889 19.2192 23.9343 19.4918C23.8797 19.7644 23.825 19.9819 23.825 20.2005H28.7426C28.6333 19.3827 28.3601 18.8376 27.9777 18.4559ZM23.1694 12.7316H29.289V14.2036H23.1694V12.7316Z" fill="white"/>
</svg>
