<svg width="39" height="39" viewBox="0 0 39 39" fill="none" xmlns="http://www.w3.org/2000/svg">
<rect width="38.82" height="38.82" rx="6.47" fill="#EC3D78"/>
<path d="M28.9714 18.8972C28.8687 16.9506 28.1846 15.1581 27.0895 13.6901C26.8005 14.005 26.4458 14.347 25.9876 14.7321C24.9014 15.6453 23.5855 16.4694 22.0233 17.1371C22.2224 17.5556 22.4057 17.9617 22.5669 18.3445L22.5683 18.3478C22.5999 18.4216 22.6271 18.4891 22.68 18.6222C22.6869 18.6394 22.6934 18.6556 22.6996 18.6709C24.5112 18.4671 26.4208 18.5421 28.2727 18.793C28.5189 18.8263 28.7515 18.8612 28.9714 18.8972ZM17.7397 9.98025C17.9478 10.2734 18.1655 10.5874 18.429 10.9766C19.1622 12.0599 19.884 13.2029 20.5595 14.3772C20.6965 14.6155 20.8307 14.8534 20.9616 15.0906C22.4253 14.5147 23.6345 13.7881 24.609 12.9767C25.0031 12.6485 25.3205 12.3401 25.5623 12.0729C23.8984 10.6762 21.7524 9.83507 19.41 9.83507C18.8403 9.83507 18.2821 9.88484 17.7397 9.98025ZM10.1375 17.0133C10.8303 16.9977 11.6121 16.9557 12.5796 16.8669C14.5032 16.6902 16.4674 16.3729 18.3986 15.8825C17.7008 14.6671 16.9432 13.4536 16.1719 12.2932C15.8012 11.7354 15.4407 11.2114 15.167 10.8242C12.7021 12.0446 10.838 14.2953 10.1375 17.0133ZM11.9699 25.4374C12.4337 24.7591 13.0435 23.9956 13.8542 23.165C15.5944 21.3822 17.649 19.9938 20.0251 19.2272C20.0584 19.2174 20.0808 19.2108 20.0994 19.2053C19.9019 18.7698 19.7167 18.3813 19.5301 18.0147C17.3326 18.6544 15.0179 19.0545 12.7109 19.2618C11.5864 19.3628 10.5772 19.4077 9.83513 19.4152C9.83635 21.6974 10.636 23.7929 11.9699 25.4374ZM23.006 28.2866C22.8811 27.6378 22.7216 26.915 22.5098 26.0813C22.1256 24.5699 21.6443 23.0149 21.0533 21.454C18.6574 22.3235 16.7479 23.5959 15.2726 25.1129C14.5616 25.8439 14.039 26.5357 13.6967 27.0942C15.2915 28.282 17.2687 28.9849 19.41 28.9849C20.6818 28.9849 21.8958 28.7369 23.006 28.2866ZM25.2481 26.9998C27.0787 25.5896 28.3847 23.532 28.8236 21.1697C28.4168 21.0694 27.9006 20.9665 27.3328 20.8876C26.0833 20.7142 24.7976 20.6852 23.5283 20.8484C24.0698 22.3739 24.5137 23.8781 24.8687 25.3178C25.0237 25.9465 25.1499 26.5143 25.2481 26.9998ZM19.41 31.3786C12.7999 31.3786 7.44141 26.02 7.44141 19.41C7.44141 12.7999 12.7999 7.44135 19.41 7.44135C26.0201 7.44135 31.3787 12.7999 31.3787 19.41C31.3787 26.02 26.0201 31.3786 19.41 31.3786Z" fill="white"/>
</svg>
