<svg width="39" height="39" viewBox="0 0 39 39" fill="none" xmlns="http://www.w3.org/2000/svg">
<rect width="38.817" height="38.817" rx="6.46949" fill="#000B1D"/>
<path d="M15.365 31.5388C17.5981 31.5388 19.4084 29.7285 19.4084 27.4954V23.4519H15.365C13.1318 23.4519 11.3215 25.2622 11.3215 27.4954C11.3215 29.7285 13.1318 31.5388 15.365 31.5388Z" fill="#0ACF83"/>
<path d="M11.3215 19.4085C11.3215 17.1754 13.1318 15.3651 15.365 15.3651H19.4084V23.4519H15.365C13.1318 23.4519 11.3215 21.6416 11.3215 19.4085Z" fill="#A259FF"/>
<path d="M11.3215 11.3216C11.3215 9.0885 13.1318 7.2782 15.365 7.2782H19.4084V15.3651H15.365C13.1318 15.3651 11.3215 13.5548 11.3215 11.3216Z" fill="#F24E1E"/>
<path d="M19.4084 7.2782H23.4518C25.685 7.2782 27.4953 9.0885 27.4953 11.3216C27.4953 13.5548 25.685 15.3651 23.4518 15.3651L19.4084 15.3651V7.2782Z" fill="#FF7262"/>
<path d="M27.4953 19.4085C27.4953 21.6416 25.685 23.4519 23.4518 23.4519C21.2187 23.4519 19.4084 21.6416 19.4084 19.4085C19.4084 17.1754 21.2187 15.3651 23.4518 15.3651C25.685 15.3651 27.4953 17.1754 27.4953 19.4085Z" fill="#1ABCFE"/>
</svg>
