<svg width="39" height="39" viewBox="0 0 39 39" fill="none" xmlns="http://www.w3.org/2000/svg">
<rect width="38.817" height="38.817" rx="6.46949" fill="#330000"/>
<path d="M19.4569 24.5433H13.4403L12.2111 28.3441C12.1973 28.4134 12.1582 28.4751 12.1013 28.517C12.0445 28.5589 11.974 28.578 11.9038 28.5706H8.86311C8.6852 28.5706 8.63668 28.4735 8.6852 28.2794L13.8931 13.2864C13.9417 13.1247 13.9902 12.9467 14.0549 12.7527C14.12 12.406 14.1525 12.0541 14.1519 11.7014C14.1471 11.6609 14.1577 11.62 14.1817 11.587C14.2057 11.554 14.2413 11.5313 14.2813 11.5235H18.4703C18.5997 11.5235 18.6644 11.572 18.6806 11.6528L24.584 28.3118C24.6325 28.4897 24.584 28.5706 24.4222 28.5706H21.0419C20.9848 28.5761 20.9275 28.5613 20.8802 28.5287C20.8328 28.4962 20.7985 28.448 20.7831 28.3927L19.4569 24.5433ZM14.3784 21.26H18.4865C18.3894 20.9204 18.26 20.5161 18.1145 20.0955C17.9689 19.675 17.8234 19.1898 17.6778 18.7046C17.5322 18.2194 17.3705 17.718 17.2088 17.2166C17.047 16.7152 16.9015 16.2462 16.7721 15.7772C16.6427 15.3081 16.5295 14.9038 16.4162 14.5156H16.3839C16.2385 15.2205 16.055 15.917 15.834 16.602C15.5914 17.3784 15.3488 18.187 15.09 18.9957C14.8636 19.8206 14.621 20.5807 14.3784 21.26Z" fill="#FF9A00"/>
<path d="M28.1098 14.2892C27.8444 14.295 27.5804 14.2479 27.3332 14.1507C27.0861 14.0535 26.8608 13.9082 26.6704 13.7231C26.2998 13.3179 26.1025 12.7839 26.1205 12.2351C26.1109 11.9677 26.1578 11.7013 26.2582 11.4533C26.3585 11.2053 26.51 10.9812 26.7027 10.7956C27.0915 10.4282 27.6073 10.2254 28.1422 10.2296C28.773 10.2296 29.2582 10.4236 29.614 10.7956C29.9723 11.1878 30.1637 11.7041 30.1477 12.2351C30.1576 12.5084 30.1126 12.7808 30.0154 13.0364C29.9181 13.292 29.7706 13.5255 29.5816 13.7231C29.3911 13.9172 29.1611 14.0682 28.9072 14.1658C28.6533 14.2635 28.3814 14.3055 28.1098 14.2892ZM26.2984 28.328V15.8742C26.2984 15.7125 26.3631 15.6478 26.5086 15.6478H29.711C29.8566 15.6478 29.9213 15.7286 29.9213 15.8742V28.328C29.9213 28.5059 29.8566 28.5867 29.711 28.5867H26.541C26.507 28.5895 26.4728 28.5846 26.441 28.5724C26.4092 28.5601 26.3805 28.5408 26.3572 28.5159C26.3339 28.4911 26.3165 28.4612 26.3063 28.4287C26.2961 28.3961 26.2934 28.3617 26.2984 28.328Z" fill="#FF9A00"/>
</svg>
