<svg width="39" height="39" viewBox="0 0 39 39" fill="none" xmlns="http://www.w3.org/2000/svg">
<rect width="38.82" height="38.82" rx="6.47" fill="#0A66C2"/>
<path fill-rule="evenodd" clip-rule="evenodd" d="M13.7405 29.3365V15.941H9.2881V29.3365H13.7405ZM11.5143 14.1121C13.0669 14.1121 14.0333 13.0835 14.0333 11.798C14.0044 10.4835 13.067 9.48346 11.5438 9.48346C10.0207 9.48346 9.0249 10.4835 9.0249 11.798C9.0249 13.0835 9.99109 14.1121 11.4853 14.1121H11.5143Z" fill="white"/>
<path fill-rule="evenodd" clip-rule="evenodd" d="M16.2039 29.3365H20.6563V21.8559C20.6563 21.4556 20.6852 21.0556 20.8028 20.7694C21.1247 19.9695 21.8573 19.1411 23.0873 19.1411C24.6984 19.1411 25.3429 20.3695 25.3429 22.1702V29.3365H29.7949V21.6557C29.7949 17.5412 27.5983 15.6267 24.669 15.6267C22.267 15.6267 21.2125 16.9692 20.6267 17.8837H20.6564V15.941H16.204C16.2625 17.198 16.2039 29.3365 16.2039 29.3365Z" fill="white"/>
</svg>
