<svg width="39" height="39" viewBox="0 0 39 39" fill="none" xmlns="http://www.w3.org/2000/svg">
<rect width="38.82" height="38.82" rx="9.705" fill="white"/>
<path d="M8.8052 7.85542L22.8301 6.82371C24.5521 6.67584 24.9957 6.77554 26.0781 7.56137L30.5548 10.708C31.2933 11.2488 31.54 11.3967 31.54 11.9865V29.2442C31.54 30.3258 31.1454 30.9654 29.7681 31.0634L13.4821 32.0461C12.4479 32.0951 11.9561 31.9481 11.4145 31.2595L8.11655 26.9814C7.52507 26.1947 7.28003 25.6058 7.28003 24.9163V9.57578C7.28003 8.69194 7.67379 7.95343 8.8052 7.85626V7.85542Z" fill="white"/>
<path fill-rule="evenodd" clip-rule="evenodd" d="M22.8301 6.82303L8.8052 7.85644C7.67379 7.95361 7.28003 8.69211 7.28003 9.57595V24.9164C7.28003 25.6059 7.52507 26.1949 8.11655 26.9815L11.4136 31.2596C11.9544 31.9483 12.447 32.0962 13.4813 32.0455L29.7681 31.0628C31.1454 30.9647 31.54 30.3251 31.54 29.2435V11.9858C31.54 11.4264 31.3186 11.2651 30.6663 10.7893C30.6291 10.762 30.5919 10.7347 30.5548 10.7074L26.0781 7.56069C24.9957 6.77487 24.5513 6.67516 22.8301 6.82303ZM13.8505 11.7027C12.5205 11.7923 12.2189 11.8126 11.4635 11.1991L9.54287 9.67482C9.34683 9.47794 9.44569 9.23205 9.93747 9.18389L23.4207 8.20034C24.5521 8.10148 25.1427 8.49608 25.5855 8.83914L27.8982 10.5113C27.9962 10.5603 28.2421 10.8552 27.9472 10.8552L14.0221 11.6918L13.8505 11.7027ZM12.2992 29.0957V14.4438C12.2992 13.805 12.496 13.5101 13.0867 13.4603L29.0786 12.5266C29.6211 12.4776 29.867 12.8223 29.867 13.4603V28.0133C29.867 28.6537 29.7681 29.1945 28.8817 29.2435L13.5793 30.1291C12.6921 30.1781 12.2992 29.884 12.2992 29.0957ZM27.4073 15.2297C27.5053 15.6733 27.4073 16.116 26.9628 16.1659L26.226 16.3129V27.1286C25.5855 27.4733 24.9949 27.6693 24.5031 27.6693C23.7156 27.6693 23.5187 27.4243 22.9281 26.6866L18.1058 19.1157V26.4416L19.6318 26.7855C19.6318 26.7855 19.6318 27.6702 18.3999 27.6702L15.0056 27.8671C14.9067 27.6702 15.0056 27.1784 15.3504 27.0804L16.2359 26.8354V17.1478L15.0056 17.0489C14.9076 16.6061 15.1526 15.9673 15.8421 15.9183L19.484 15.6733L24.5031 23.3431V16.558L23.2238 16.4109C23.1249 15.8693 23.5187 15.4756 24.0105 15.4274L27.4073 15.2297Z" fill="black"/>
</svg>
