<svg width="39" height="39" viewBox="0 0 39 39" fill="none" xmlns="http://www.w3.org/2000/svg">
<rect width="38.817" height="38.817" rx="6.46949" fill="#001E36"/>
<path d="M7.73047 27.5923V10.9496C7.73047 10.8364 7.77899 10.7717 7.89221 10.7717C8.16716 10.7717 8.42594 10.7717 8.79793 10.7555C9.16993 10.7393 9.59045 10.7393 10.0271 10.7231C10.4638 10.707 10.9329 10.707 11.4343 10.6908C11.9356 10.6746 12.4209 10.6746 12.9061 10.6746C14.2323 10.6746 15.3321 10.8364 16.2379 11.176C17.0498 11.4517 17.7901 11.9048 18.4051 12.5023C18.9263 13.0251 19.329 13.6539 19.5858 14.3461C19.8306 15.0201 19.9565 15.7315 19.9578 16.4486C19.9578 17.8396 19.6343 18.9879 18.9874 19.8936C18.3374 20.7981 17.43 21.4858 16.3834 21.8668C15.2836 22.2712 14.0706 22.4168 12.7443 22.4168C12.3562 22.4168 12.0974 22.4167 11.9356 22.4006C11.7739 22.3844 11.5475 22.3844 11.2402 22.3844V27.5762C11.2438 27.6028 11.242 27.6299 11.235 27.6558C11.2279 27.6817 11.2157 27.7059 11.1991 27.727C11.1825 27.7482 11.1619 27.7657 11.1384 27.7787C11.1148 27.7917 11.089 27.7998 11.0623 27.8026H7.92455C7.79516 27.8026 7.73047 27.7379 7.73047 27.5923ZM11.2563 13.8932V19.3276C11.4828 19.3437 11.693 19.3599 11.8871 19.3599H12.7443C13.3757 19.3607 14.0033 19.2624 14.6043 19.0688C15.1199 18.9172 15.5806 18.6194 15.9305 18.2116C16.2702 17.8072 16.4319 17.2573 16.4319 16.5457C16.4472 16.0403 16.3181 15.541 16.0599 15.1062C15.7903 14.6863 15.3936 14.3633 14.9278 14.1843C14.3206 13.9465 13.6709 13.8364 13.0193 13.8608C12.5988 13.8608 12.2268 13.8608 11.9195 13.877C11.6984 13.8626 11.4765 13.868 11.2563 13.8932Z" fill="#31A8FF"/>
<path d="M30.0502 18.341C29.5619 18.0838 29.0389 17.8985 28.4975 17.7911C27.903 17.6564 27.2957 17.5859 26.6861 17.5808C26.3588 17.5695 26.0316 17.6077 25.7157 17.694C25.5142 17.7359 25.3355 17.8512 25.2143 18.0175C25.1326 18.1487 25.0878 18.2996 25.0849 18.4542C25.0924 18.6081 25.1491 18.7554 25.2466 18.8747C25.3999 19.0545 25.5867 19.2028 25.7965 19.3114C26.1685 19.5055 26.5567 19.6834 26.9449 19.8451C27.8187 20.1393 28.6547 20.5356 29.4356 21.0258C29.9668 21.3598 30.406 21.8212 30.7133 22.3682C30.9732 22.8842 31.1011 23.4566 31.0853 24.0341C31.0985 24.7986 30.8784 25.5489 30.4546 26.1852C30.0034 26.8309 29.374 27.3311 28.6431 27.6247C27.8506 27.9643 26.8802 28.1422 25.7157 28.1422C24.9773 28.1452 24.2405 28.0748 23.516 27.932C22.9456 27.8334 22.3908 27.6594 21.8663 27.4144C21.8099 27.3861 21.763 27.342 21.7314 27.2874C21.6998 27.2328 21.6849 27.1701 21.6884 27.1071V24.2929C21.687 24.2653 21.6921 24.2377 21.7034 24.2124C21.7146 24.1871 21.7316 24.1648 21.7531 24.1473C21.7759 24.1341 21.8023 24.1285 21.8286 24.1314C21.8548 24.1343 21.8793 24.1456 21.8987 24.1635C22.5217 24.5308 23.1984 24.7982 23.9042 24.956C24.5274 25.1182 25.1688 25.1997 25.8127 25.1986C26.4273 25.1986 26.864 25.1178 27.1551 24.9722C27.285 24.9122 27.395 24.8164 27.4724 24.6961C27.5497 24.5758 27.5912 24.4359 27.5918 24.2929C27.5918 24.0665 27.4624 23.8562 27.2036 23.6459C26.9449 23.4357 26.4111 23.1931 25.6186 22.8858C24.8056 22.5993 24.0335 22.2078 23.3219 21.7213C22.8151 21.3601 22.3952 20.8904 22.0927 20.3465C21.8346 19.8357 21.7068 19.269 21.7207 18.6968C21.7231 18.0066 21.9132 17.3301 22.2707 16.7398C22.6815 16.0905 23.2713 15.5738 23.9689 15.2518C24.7291 14.8636 25.6833 14.6857 26.8316 14.6857C27.5028 14.6859 28.1731 14.7345 28.8372 14.8313C29.3147 14.8959 29.7821 15.0209 30.2281 15.2033C30.2992 15.2285 30.3574 15.2808 30.3899 15.3488C30.4085 15.412 30.4194 15.4771 30.4222 15.5429V18.1792C30.4225 18.2107 30.4153 18.2417 30.4012 18.2698C30.3872 18.2979 30.3666 18.3223 30.3413 18.341C30.2473 18.3748 30.1443 18.3748 30.0502 18.341Z" fill="#31A8FF"/>
</svg>
