<svg width="39" height="39" viewBox="0 0 39 39" fill="none" xmlns="http://www.w3.org/2000/svg">
<rect width="38.82" height="38.82" rx="6.47" fill="#2544DD"/>
<path d="M28.0385 16.7707C30.1742 17.976 30.8911 20.6395 29.6555 22.7228C29.2742 23.3775 28.725 23.9132 28.0538 24.2852L21.1739 28.2136L17.1467 30.5349C15.9569 31.2193 14.4314 30.8325 13.7449 29.6718C13.5161 29.2998 13.4093 28.8832 13.4093 28.4516C13.4093 27.5886 13.8822 26.785 14.645 26.3535L22.9587 21.5919C23.5384 21.2645 23.7367 20.5354 23.4011 19.9699C23.2943 19.7913 23.1418 19.6426 22.9587 19.5384L21.1587 18.5266C20.9451 18.3926 20.8688 18.1248 21.0061 17.9165C21.0366 17.857 21.0977 17.8123 21.1587 17.7677L22.852 16.8005C24.4384 15.863 26.4368 15.863 28.0385 16.7707ZM10.7703 22.0234C12.3873 22.9311 14.3704 22.9311 15.9721 22.0085L17.6807 21.0413C17.8942 20.9074 17.9705 20.6395 17.8332 20.4312C17.8026 20.3717 17.7417 20.327 17.6807 20.2824L15.8958 19.2706C15.3161 18.9432 15.1178 18.2141 15.4535 17.6486C15.5602 17.4701 15.7128 17.3213 15.8958 17.2171L24.2096 12.4703C24.9723 12.0388 25.4453 11.2352 25.4453 10.3722C25.4453 9.03297 24.3317 7.94672 22.9587 7.94672C22.5163 7.94672 22.074 8.06576 21.6926 8.28896L17.6501 10.5656L10.7703 14.494C8.63464 15.7142 7.93292 18.3777 9.16855 20.461C9.56517 21.1008 10.1143 21.6365 10.7703 22.0234Z" fill="white"/>
</svg>
