<svg width="39" height="39" viewBox="0 0 39 39" fill="none" xmlns="http://www.w3.org/2000/svg">
<rect width="38.82" height="38.82" rx="6.47" fill="#FF0000"/>
<path d="M31.6603 13.2554C31.3657 12.1546 30.5005 11.2895 29.3997 10.9948C27.4064 10.4601 19.41 10.4601 19.41 10.4601C19.41 10.4601 11.4136 10.4601 9.42026 10.9948C8.31942 11.2895 7.45432 12.1546 7.15964 13.2554C6.625 15.2487 6.625 19.4101 6.625 19.4101C6.625 19.4101 6.625 23.5714 7.15964 25.5647C7.45432 26.6656 8.31942 27.5307 9.42026 27.8253C11.4136 28.36 19.41 28.36 19.41 28.36C19.41 28.36 27.4064 28.36 29.3997 27.8253C30.5005 27.5307 31.3657 26.6656 31.6603 25.5647C32.195 23.5714 32.195 19.4101 32.195 19.4101C32.195 19.4101 32.1929 15.2487 31.6603 13.2554Z" fill="white"/>
<path d="M16.8506 23.2455L23.4936 19.4105L16.8506 15.5754V23.2455Z" fill="#FF0000"/>
</svg>
