<svg width="52" height="48" viewBox="0 0 52 48" fill="none" xmlns="http://www.w3.org/2000/svg">
  <style>
    path { fill: black; }
    @media (prefers-color-scheme: dark) {
      path { fill: white; }
    }
  </style>
  <path d="M49.4725 38.32L50.4309 38.5006L49.5707 39.0038C47.9473 39.9524 46.0369 40.2594 44.2415 39.8994C44.7029 40.4501 45.0941 41.0778 45.4234 41.7876C45.4147 41.7858 45.3983 41.7829 45.3701 41.7783C45.3591 41.772 45.3467 41.7657 45.3341 41.7599C45.2678 41.6977 45.1935 41.6461 45.1134 41.6049C45.0328 41.5369 44.9403 41.4802 44.8625 41.4402C44.8167 41.4168 44.768 41.3972 44.7173 41.3785C44.6569 41.3333 44.5915 41.295 44.5218 41.2642C44.5131 41.2578 44.5039 41.2526 44.4955 41.2475C44.4327 41.2017 44.3662 41.1645 44.2942 41.1337C44.2913 41.1308 44.2907 41.1273 44.2879 41.1239C42.2614 40.1713 39.5854 40.754 37.7554 41.6179C36.2785 42.315 34.906 43.3157 33.5801 44.2838C33.0981 44.6344 32.6013 44.9973 32.1047 45.3427C30.4423 46.4949 28.218 47.8387 25.7491 47.9994H25.7462L25.554 48L25.3613 47.9994H25.3579C22.8893 47.8387 20.6649 46.4949 19.0029 45.3427C18.506 44.9973 18.0091 44.6344 17.5274 44.2838C16.201 43.3157 14.8284 42.315 13.3515 41.6179C11.5213 40.754 8.84611 40.1713 6.8185 41.1239C6.8162 41.1273 6.81504 41.1308 6.81216 41.1337C6.74015 41.1645 6.67332 41.2017 6.61082 41.2475C6.60275 41.2526 6.59411 41.2578 6.5846 41.2642C6.51547 41.295 6.44979 41.3333 6.38901 41.3785C6.33918 41.397 6.28964 41.4168 6.24384 41.4402C6.16606 41.4802 6.07388 41.5372 5.99352 41.6049C5.91286 41.6461 5.83854 41.6977 5.77229 41.7599C5.76019 41.7657 5.74723 41.772 5.73629 41.7783C5.70834 41.7829 5.69221 41.7858 5.68357 41.7876C6.01224 41.0775 6.40342 40.4501 6.86488 39.8994C5.06944 40.2591 3.15908 39.9521 1.53619 39.0038L0.675484 38.5006L1.63441 38.32C4.03303 37.8683 6.22022 36.6737 7.89352 34.9172C5.55654 35.3288 3.09542 35.0716 0.858974 34.1697L0 33.8232L0.85955 33.4824C3.67181 32.3668 6.09779 30.8122 8.07124 28.8609C8.15536 28.5184 8.4411 27.4353 8.99474 26.059C8.98264 26.044 8.97083 26.0288 8.95989 26.0126C8.93252 25.9714 8.90112 25.9216 8.86713 25.8646C8.3858 25.0606 7.28659 22.7801 7.08697 22.0939C6.09664 18.6866 5.71468 15.1081 5.95261 11.4593C6.18709 7.84023 7.01899 4.35392 8.4218 1.09863L8.8945 0L9.28395 1.13839C9.88483 2.89205 11.1344 4.48239 13.1024 6.00101C13.9086 6.62205 14.7737 7.19268 15.611 7.7443C16.5184 8.3423 17.4551 8.96046 18.3386 9.65409C20.2302 11.1448 21.534 12.791 22.2184 14.5568C22.1945 14.5671 22.1709 14.5795 22.1475 14.591L22.0865 15.7827C23.1511 15.1582 24.3503 14.8434 25.5506 14.8632C25.196 14.869 24.842 14.9039 24.4911 14.9695C23.7511 15.1066 23.0272 15.3731 22.3405 15.7614C22.2198 15.8294 22.085 15.834 21.9678 15.787C21.7716 15.7888 21.587 15.6537 21.519 15.4365C20.9682 13.677 19.7149 12.0181 17.7942 10.5064C16.9427 9.83672 16.0221 9.23008 15.1317 8.64245C14.6509 8.32559 14.1613 8.00269 13.6759 7.66682C13.3008 7.40671 12.929 7.13853 12.566 6.85883C12.5551 6.85076 12.545 6.84327 12.5352 6.83492C11.9309 6.52267 11.2499 6.30836 10.5229 6.20178C13.6079 9.15346 15.9129 13.3357 17.064 18.1024L17.1515 18.4645L16.8229 18.552C15.4414 18.9202 14.1567 19.6985 13.0033 20.8663C12.5459 21.3289 12.1083 21.8543 11.6932 22.4364C11.2637 23.0396 10.859 23.7036 10.4811 24.4257C9.20877 26.8601 8.68681 29.127 8.68163 29.1495L8.65772 29.2575L8.58225 29.3319C6.74102 31.1725 4.51782 32.6724 1.96481 33.8001C4.17821 34.5018 6.56501 34.5687 8.77841 33.9779L9.78429 33.7097L9.10334 34.5741C7.47929 36.6337 5.25265 38.1108 2.75407 38.8051C4.4484 39.4889 6.35992 39.4918 8.03754 38.7834L10.4117 37.781L8.34576 39.4221C8.13922 39.5863 7.94421 39.7605 7.75899 39.9475C9.75923 39.5278 12.0184 40.0823 13.6436 40.8497C15.183 41.5764 16.5844 42.5981 17.9385 43.5859C18.4161 43.9347 18.9095 44.2939 19.4001 44.6341C20.9835 45.7324 23.0946 47.0123 25.3893 47.1649H25.7151C28.0091 47.0123 30.1208 45.7324 31.7043 44.6341C32.1942 44.2939 32.6882 43.9347 33.1653 43.5859C34.52 42.5978 35.9202 41.5764 37.4601 40.8497C39.0859 40.0823 41.3445 39.5281 43.3448 39.9475C43.1595 39.7611 42.9645 39.5865 42.7574 39.4221L40.6921 37.781L43.0656 38.7834C44.7433 39.4915 46.6554 39.4886 48.3491 38.8051C45.8508 38.1108 43.6242 36.6334 42.0007 34.5741L41.3192 33.7097L42.3251 33.9779C44.5385 34.5687 46.9253 34.5021 49.1392 33.8001C46.5857 32.6724 44.3625 31.1722 42.5212 29.3316L42.4463 29.2573L42.4218 29.1492C42.4167 29.1265 41.8947 26.8598 40.6224 24.4255C40.245 23.7033 39.84 23.0393 39.4103 22.4362C38.9952 21.854 38.5582 21.3286 38.1002 20.866C36.9474 19.6982 35.6621 18.9196 34.2812 18.5518L33.9519 18.4642L34.0395 18.1021C35.1906 13.3354 37.4961 9.15317 40.5815 6.20149C39.8536 6.30836 39.1732 6.52238 38.5691 6.83463C38.5593 6.8427 38.5487 6.85048 38.5383 6.85854C38.1757 7.13824 37.8035 7.40642 37.429 7.66653C36.9431 8.00269 36.4528 8.32531 35.972 8.64216C35.0817 9.2295 34.1611 9.83614 33.3102 10.5062C31.3894 12.0176 30.1361 13.6768 29.5848 15.4362C29.5168 15.6534 29.3327 15.7885 29.1371 15.7867C29.0187 15.8337 28.8839 15.8291 28.7638 15.7611C28.0765 15.3728 27.3526 15.1064 26.6126 14.9692C26.2609 14.9036 25.906 14.869 25.5506 14.8632C26.7503 14.8431 27.9529 15.1573 29.0179 15.7824L28.9562 14.5907C28.9329 14.5792 28.9093 14.5668 28.8854 14.5565C29.5698 12.7907 30.8735 11.1445 32.7657 9.65381C33.6486 8.96018 34.5854 8.34201 35.4933 7.74402C36.3304 7.19268 37.1957 6.62205 38.0014 6.00101C39.9697 4.48239 41.2195 2.89205 41.8198 1.13839L42.2116 0L42.6851 1.09835C44.0882 4.35363 44.9193 7.83994 45.1549 11.459C45.3917 15.1078 45.0103 18.6863 44.0194 22.0937C43.8203 22.7798 42.7208 25.0603 42.2392 25.8643C42.2049 25.921 42.1741 25.9711 42.147 26.0123C42.1361 26.0285 42.1243 26.0437 42.1116 26.0587C42.6658 27.435 42.951 28.5181 43.0351 28.8606C45.0091 30.8122 47.4345 32.3665 50.2468 33.4821L51.1064 33.8229L50.248 34.1694C48.0109 35.0716 45.5498 35.3285 43.2134 34.9169C44.887 36.6735 47.0736 37.8683 49.4725 38.32ZM42.0814 24.1097C42.1482 23.9749 42.2168 23.8364 42.2833 23.697C42.3032 23.6575 42.3216 23.618 42.3406 23.5792C42.3686 23.5198 42.3974 23.4608 42.4247 23.402C42.4532 23.3438 42.4797 23.2853 42.5071 23.2277C42.6742 22.872 42.8274 22.5318 42.9424 22.2579C42.9522 22.2328 42.9628 22.208 42.9732 22.1841C43.0435 22.0116 43.0962 21.8707 43.1247 21.7731C43.1469 21.697 43.1688 21.621 43.1904 21.5443C43.1915 21.5392 43.1927 21.534 43.1944 21.5294C43.2419 21.3623 43.2872 21.1938 43.3315 21.0256C43.3537 20.942 43.375 20.8585 43.3955 20.7747C43.4047 20.7375 43.4139 20.7003 43.4234 20.6632C43.4326 20.626 43.4418 20.5889 43.4513 20.5511C43.4606 20.514 43.4692 20.4768 43.4787 20.4391C43.4874 20.4019 43.4966 20.3648 43.5049 20.3276C43.517 20.2795 43.5277 20.2305 43.5392 20.1824L43.5398 20.1796C43.5525 20.1222 43.566 20.0652 43.5781 20.0079C43.5804 19.9987 43.5827 19.99 43.5844 19.9805C43.5994 19.9137 43.6141 19.8463 43.6285 19.7803C43.6291 19.7757 43.6297 19.7711 43.6308 19.7671C43.6657 19.6057 43.6988 19.445 43.7308 19.2828C43.7342 19.2653 43.7371 19.248 43.7411 19.2307C43.7555 19.1552 43.7696 19.0803 43.784 19.0049C43.7985 18.9265 43.8126 18.8487 43.8264 18.7704C43.8281 18.7589 43.8304 18.7471 43.8321 18.735C43.8344 18.7252 43.8362 18.7145 43.8379 18.7047C43.8448 18.667 43.8512 18.6298 43.8569 18.5927C43.8592 18.5823 43.8604 18.5716 43.8621 18.5613C43.8731 18.4973 43.8837 18.4342 43.8941 18.3703L43.8952 18.3651C43.8958 18.3611 43.8964 18.3576 43.8975 18.3542C43.8975 18.3467 43.8993 18.3398 43.9004 18.332C43.9079 18.2879 43.9148 18.245 43.9215 18.2015C43.9238 18.1871 43.9261 18.1718 43.9284 18.1574C43.9393 18.09 43.95 18.0226 43.9592 17.9549C43.9695 17.8875 43.9791 17.8195 43.9889 17.7524C43.994 17.7176 43.9986 17.6827 44.0033 17.6473C44.0044 17.6398 44.0056 17.6329 44.0067 17.6251L44.0084 17.6147C44.0084 17.6118 44.0084 17.609 44.009 17.6061C44.0096 17.6032 44.0096 17.6003 44.0102 17.5974C44.0107 17.5923 44.0119 17.5865 44.0125 17.5807C44.0182 17.5361 44.024 17.4914 44.0298 17.4465C44.0361 17.4024 44.0419 17.3572 44.047 17.3123C44.0597 17.2112 44.0721 17.1109 44.0836 17.0098C44.09 16.9571 44.0963 16.9041 44.1015 16.8508C44.1038 16.8364 44.1049 16.8223 44.1067 16.8079C44.1078 16.7998 44.109 16.7918 44.1095 16.7834C44.1124 16.7583 44.1147 16.7336 44.117 16.7085C44.1199 16.6835 44.1228 16.6581 44.1251 16.6325C44.1372 16.5077 44.1496 16.3827 44.1611 16.2574C44.1657 16.2053 44.1703 16.1529 44.1744 16.1007L44.1761 16.0869C44.1813 16.0183 44.187 15.9498 44.1922 15.8815C44.1991 15.7986 44.2049 15.7162 44.2107 15.6338C44.2118 15.6145 44.2135 15.5949 44.2141 15.575C44.2158 15.5554 44.217 15.5356 44.2181 15.5157C44.2193 15.4961 44.2204 15.4768 44.2216 15.4572C44.2245 15.4172 44.2268 15.3766 44.2291 15.3365L44.2297 15.3325C44.2302 15.3273 44.2302 15.3215 44.2308 15.3163C44.2331 15.2763 44.2354 15.2363 44.2377 15.1962C44.2377 15.1853 44.2383 15.1741 44.2389 15.1631C44.24 15.1404 44.2412 15.1185 44.2423 15.0957C44.2458 15.039 44.2481 14.9819 44.251 14.9252C44.2527 14.8903 44.2539 14.8549 44.255 14.82C44.2579 14.7624 44.2602 14.7057 44.2619 14.6484C44.2625 14.6363 44.2625 14.6239 44.2631 14.6123C44.2637 14.6031 44.2637 14.5939 44.2637 14.585C44.2642 14.5781 44.2642 14.5712 44.2648 14.564C44.266 14.5372 44.2665 14.5112 44.2671 14.485C44.2677 14.4582 44.2683 14.4323 44.2694 14.4061V14.3839C44.27 14.3695 44.2706 14.3554 44.2711 14.3416C44.2723 14.3182 44.2729 14.2952 44.2729 14.2713C44.2735 14.2627 44.2735 14.2546 44.2735 14.2457C44.274 14.2387 44.274 14.2318 44.274 14.2246C44.274 14.2154 44.2746 14.2059 44.2746 14.1961C44.2752 14.1676 44.2758 14.1388 44.2763 14.1103V14.0953C44.2769 14.0769 44.2769 14.0587 44.2769 14.0403C44.2775 14.0112 44.2786 13.9818 44.2786 13.9527C44.2798 13.9236 44.2798 13.8939 44.2804 13.8651V13.845C44.2809 13.7479 44.2815 13.6505 44.2815 13.5523C44.2815 13.4694 44.2809 13.3852 44.2804 13.3014C44.2798 13.2173 44.2786 13.1332 44.2769 13.0494C44.2763 12.9653 44.2746 12.8817 44.2723 12.7973C44.2717 12.7556 44.2706 12.7132 44.2688 12.6714C44.2677 12.6297 44.2665 12.5873 44.2654 12.5456C44.2648 12.5263 44.2637 12.5067 44.2631 12.4874C44.2619 12.4485 44.2608 12.4102 44.259 12.3713V12.358C44.2567 12.3111 44.2544 12.2641 44.2527 12.2169C44.2521 12.1941 44.251 12.1711 44.2498 12.1478V12.1397C44.2498 12.1357 44.2493 12.1311 44.2493 12.127C44.2493 12.1224 44.2487 12.1178 44.2487 12.1138C44.2458 12.0616 44.2435 12.0092 44.2406 11.9577C44.2383 11.9009 44.2349 11.8444 44.2314 11.7877C44.2268 11.7036 44.2222 11.6195 44.2158 11.5345C44.2112 11.4619 44.2066 11.3893 44.2014 11.3167C44.198 11.2721 44.1945 11.2269 44.1916 11.1808C44.1859 11.1093 44.1801 11.0373 44.1744 10.9659C44.164 10.8475 44.1539 10.7291 44.1418 10.6113C44.1372 10.5502 44.1309 10.49 44.1251 10.4295C44.1124 10.3918 44.1176 10.3541 44.113 10.3163C44.098 10.1683 44.0816 10.0208 44.0637 9.8733C44.0586 9.82405 44.0528 9.77565 44.0459 9.7264C44.0349 9.63595 44.0231 9.54463 44.011 9.45361C44.0012 9.37872 43.9912 9.30497 43.9808 9.23008C43.9802 9.22374 43.9791 9.21683 43.9785 9.20905C43.9675 9.13762 43.9569 9.0656 43.9465 8.99417C43.9298 8.87923 43.9122 8.7643 43.8938 8.64879C43.88 8.56353 43.8659 8.4774 43.852 8.39156C43.8491 8.37831 43.8463 8.36362 43.8445 8.34921C43.8296 8.25992 43.8131 8.17033 43.7976 8.08046C43.7889 8.03466 43.7809 7.98886 43.7719 7.94277C43.7633 7.89697 43.7552 7.85117 43.7469 7.80508C43.7463 7.80105 43.7452 7.79702 43.744 7.79298C43.7267 7.70081 43.7092 7.60834 43.6907 7.51674C43.6691 7.4093 43.6472 7.30128 43.6239 7.19412C43.6095 7.12153 43.5936 7.0501 43.5781 6.97808C43.5608 6.89512 43.5415 6.81274 43.5236 6.72978C43.5098 6.66814 43.4951 6.60678 43.4807 6.54514C43.4796 6.53938 43.4778 6.53362 43.4767 6.52728C43.4617 6.46506 43.447 6.40255 43.432 6.33976C43.3989 6.20264 43.3646 6.06524 43.3292 5.92813C43.3154 5.87167 43.3007 5.81608 43.2857 5.75991C43.2846 5.75587 43.284 5.75242 43.2828 5.74896C43.2503 5.62251 43.2154 5.49634 43.1812 5.37046C43.1627 5.30594 43.1451 5.24228 43.1267 5.17775L43.1353 5.17084H43.125L42.0151 5.59802L41.6807 5.88233C41.5738 5.97278 41.4675 6.06582 41.3627 6.15915C41.3353 6.18421 41.3077 6.20898 41.2797 6.23404C41.2391 6.27063 41.1985 6.30778 41.1579 6.34552C41.1005 6.39766 41.0435 6.45123 40.9868 6.5051C40.9508 6.5388 40.9153 6.5725 40.8799 6.60678C40.7929 6.68974 40.7062 6.77443 40.6204 6.86056C40.5339 6.94582 40.4487 7.03281 40.3643 7.12067C40.3482 7.1368 40.3317 7.15437 40.3156 7.17108C40.2877 7.1996 40.2606 7.22782 40.2338 7.25692C40.1932 7.29984 40.1526 7.34276 40.1125 7.38625C40.0708 7.4309 40.0296 7.47555 39.9884 7.52077C39.9437 7.56946 39.8997 7.61842 39.8562 7.66768C39.8498 7.67402 39.8441 7.68093 39.8383 7.68756C39.8115 7.71665 39.7862 7.74603 39.7599 7.7757C39.7124 7.82899 39.6655 7.88314 39.6188 7.93759C39.5851 7.9759 39.552 8.01421 39.5194 8.0531C39.5142 8.05886 39.5096 8.06462 39.505 8.07038C39.4517 8.1326 39.3993 8.19511 39.3472 8.25848C39.1323 8.51744 38.9234 8.78331 38.7192 9.05552C38.6653 9.12753 38.6112 9.20012 38.5585 9.27329C38.4738 9.38937 38.3897 9.50719 38.3064 9.62558C38.2235 9.74397 38.1411 9.86351 38.0604 9.9842C37.9798 10.1043 37.8997 10.2262 37.8202 10.3495C37.7562 10.4483 37.6932 10.5479 37.631 10.6485C37.5771 10.7349 37.5235 10.8216 37.4708 10.9091C37.3947 11.035 37.3199 11.1623 37.2455 11.2905C37.1712 11.4181 37.0981 11.5472 37.026 11.6771C36.954 11.807 36.8826 11.9384 36.8129 12.07C36.6729 12.3341 36.5372 12.6017 36.4053 12.8734C36.3722 12.9408 36.3396 13.0093 36.3076 13.077C36.2183 13.2651 36.1311 13.455 36.0469 13.6459C36.0285 13.6871 36.0098 13.7289 35.9925 13.7701C35.9856 13.7851 35.9787 13.8003 35.9726 13.8153C35.9383 13.8931 35.9046 13.9709 35.8721 14.0492C35.8571 14.0846 35.8419 14.1201 35.8269 14.1555C35.8024 14.2137 35.7788 14.2716 35.7549 14.3303C35.7039 14.4545 35.6538 14.5786 35.6051 14.7042C35.5872 14.7489 35.5696 14.7935 35.5529 14.8388C35.5357 14.8834 35.5181 14.9286 35.5014 14.9736C35.474 15.0456 35.4469 15.1182 35.4201 15.1908C35.3997 15.2458 35.3795 15.3011 35.3597 15.3561C35.3202 15.4641 35.2819 15.5733 35.2441 15.6825C35.2248 15.7375 35.2058 15.7928 35.1874 15.8478C35.1618 15.9215 35.1376 15.9953 35.1131 16.0696C35.0765 16.1805 35.0405 16.292 35.0051 16.404C34.986 16.4645 34.9673 16.5253 34.9483 16.5864C34.8933 16.7653 34.8397 16.9444 34.7887 17.125C34.7689 17.1936 34.7493 17.2621 34.7305 17.331C34.7112 17.3995 34.6922 17.4687 34.6744 17.5375C34.6605 17.5891 34.6464 17.6404 34.6332 17.6919C34.6165 17.7541 34.6001 17.8167 34.5845 17.8789L34.5335 18.0796L34.7147 18.1364C36.0544 18.5567 37.3029 19.3474 38.4257 20.486C38.4559 20.5169 38.4862 20.5477 38.5161 20.5788C38.576 20.641 38.6363 20.7047 38.6956 20.7686C38.7258 20.8012 38.7555 20.8337 38.7843 20.866C38.9027 20.997 39.0199 21.1319 39.1343 21.2707C39.1925 21.3404 39.2498 21.4101 39.3068 21.4813C39.3915 21.5881 39.4756 21.6979 39.56 21.8085C39.6436 21.9205 39.7265 22.0337 39.8083 22.1493C39.8112 22.1539 39.8147 22.1585 39.817 22.1631C39.868 22.2357 39.9198 22.3094 39.9708 22.3832C40.1047 22.5805 40.2373 22.7841 40.366 22.9932C40.4182 23.0768 40.4694 23.1615 40.5204 23.247C40.5708 23.3329 40.6215 23.4193 40.6713 23.5066C40.7972 23.7249 40.9191 23.949 41.0395 24.178C41.0772 24.2506 41.1144 24.3238 41.1515 24.3969C41.2253 24.5433 41.2973 24.6902 41.3681 24.8377C41.4036 24.9114 41.4384 24.9857 41.4727 25.0595C41.49 25.0966 41.5076 25.1343 41.5248 25.1721C41.5381 25.1487 41.5516 25.1251 41.5655 25.0995C41.5724 25.0868 41.5799 25.0733 41.5876 25.06C41.6044 25.0292 41.6219 24.9972 41.6398 24.9644C41.6525 24.9399 41.6666 24.9151 41.6804 24.8895C41.685 24.8809 41.6896 24.8711 41.6954 24.8616L41.6971 24.8587C41.7 24.8518 41.7034 24.8449 41.7075 24.8377C41.7104 24.8325 41.7127 24.8279 41.715 24.8227C41.715 24.8227 41.7167 24.8204 41.7178 24.8186L41.7201 24.8135C41.7213 24.8117 41.7236 24.8088 41.7236 24.8088L41.7242 24.8071C41.7288 24.7985 41.7334 24.7898 41.738 24.7803C41.7426 24.7717 41.7472 24.7625 41.7518 24.753C41.829 24.6078 41.9114 24.4471 41.9973 24.2777C42.0093 24.2532 42.0223 24.229 42.0344 24.2045C42.0494 24.1731 42.0652 24.142 42.0814 24.1097ZM9.02441 24.1097C9.03421 24.129 9.04342 24.1486 9.0535 24.1671C9.05984 24.1797 9.06618 24.1927 9.07252 24.2054C9.08461 24.2299 9.097 24.2541 9.1091 24.2785C9.13358 24.3266 9.15778 24.3742 9.18169 24.4214C9.2056 24.4684 9.22864 24.5136 9.25255 24.5591C9.26407 24.5819 9.27588 24.6043 9.28683 24.6265C9.30958 24.67 9.33205 24.7129 9.35423 24.7541C9.36403 24.7726 9.37353 24.7907 9.38275 24.808L9.38332 24.8097C9.38563 24.8126 9.38736 24.816 9.38909 24.8195L9.39139 24.8235C9.39369 24.8287 9.39658 24.8333 9.39946 24.8385C9.40291 24.8454 9.40637 24.8523 9.40983 24.8595C9.41559 24.8699 9.42135 24.8806 9.42596 24.8904C9.43345 24.903 9.44036 24.916 9.44698 24.9281C9.4539 24.9408 9.46024 24.9532 9.46744 24.9653C9.48789 25.003 9.50748 25.0396 9.52678 25.0744C9.54607 25.1087 9.56451 25.1424 9.58179 25.1732C9.59965 25.1355 9.61722 25.0978 9.63393 25.0606C9.77162 24.7651 9.91709 24.4692 10.0675 24.1795C10.1274 24.0645 10.1881 23.9513 10.2492 23.8398C10.3109 23.7278 10.3728 23.6169 10.4356 23.5077C10.4854 23.4207 10.5355 23.334 10.5859 23.2482C10.6375 23.1629 10.6888 23.0782 10.7409 22.9944C10.8371 22.8377 10.9359 22.6839 11.0359 22.5335C11.069 22.4837 11.1021 22.4336 11.1358 22.3843C11.1615 22.3477 11.1868 22.3106 11.2125 22.274C11.2297 22.2495 11.2467 22.2253 11.2634 22.2008C11.2721 22.1881 11.2807 22.1763 11.2897 22.1642C11.292 22.1596 11.2954 22.155 11.2989 22.1504C11.3807 22.0349 11.4631 21.9217 11.5472 21.8096C11.5895 21.7546 11.6313 21.6993 11.6731 21.6449C11.7148 21.5904 11.7577 21.5363 11.8001 21.4824C11.8286 21.447 11.8568 21.4116 11.8859 21.3761C11.9144 21.3413 11.9433 21.3064 11.9723 21.2716C11.9793 21.2623 11.9867 21.2537 11.9945 21.2448C12.0014 21.2361 12.0084 21.2275 12.0161 21.2186C12.0608 21.1647 12.1066 21.1111 12.1521 21.059C12.1783 21.0287 12.2042 20.9991 12.2304 20.9703C12.2607 20.9354 12.2915 20.9011 12.322 20.8668C12.3416 20.8455 12.3615 20.8233 12.3814 20.8017C12.3912 20.7908 12.4018 20.7801 12.4116 20.7692C12.4197 20.76 12.4283 20.7513 12.4367 20.7418C12.4407 20.7372 12.4448 20.7332 12.4494 20.7286C12.4727 20.7035 12.4963 20.6782 12.5196 20.6537C12.543 20.6286 12.5666 20.6038 12.5905 20.5794C12.6208 20.548 12.6516 20.5171 12.6815 20.4866C12.7164 20.4512 12.7518 20.4158 12.7872 20.3809C12.8558 20.3135 12.9249 20.2467 12.9938 20.1819C12.9955 20.1796 12.9978 20.1772 13.0001 20.1755C13.0511 20.128 13.1024 20.081 13.1539 20.0344C13.1796 20.0105 13.2055 19.988 13.2311 19.9652C13.2573 19.9419 13.2827 19.9194 13.3089 19.8973C13.3443 19.8664 13.3798 19.8362 13.4152 19.8068C13.4506 19.7766 13.4861 19.7469 13.5221 19.7181C13.5581 19.6884 13.5941 19.6593 13.6301 19.6311C13.6765 19.5939 13.7228 19.5574 13.7695 19.5219C13.8067 19.4928 13.8444 19.4646 13.8821 19.4367C14.0325 19.3246 14.1852 19.2177 14.339 19.1175C14.3727 19.0953 14.4058 19.074 14.4389 19.053C14.483 19.0245 14.5277 18.9974 14.5717 18.97C14.6106 18.9461 14.6495 18.9231 14.689 18.8997C14.7279 18.8764 14.7673 18.8539 14.8068 18.8312C14.8462 18.8084 14.8857 18.7865 14.9252 18.7649C14.9646 18.7436 15.0041 18.722 15.0441 18.701C15.0842 18.6794 15.1242 18.6586 15.1637 18.6388C15.1991 18.6209 15.2345 18.6033 15.2694 18.5866C15.3048 18.5693 15.3397 18.5523 15.3751 18.5356C15.4169 18.5158 15.4586 18.4967 15.5004 18.4774C15.5422 18.4581 15.5845 18.4397 15.6263 18.4219C15.6744 18.4008 15.7228 18.3807 15.7715 18.3608C15.7983 18.3498 15.8253 18.3386 15.8527 18.3282C15.8795 18.3179 15.906 18.3072 15.9328 18.2968C16.0849 18.2381 16.2381 18.1848 16.3925 18.1367L16.5737 18.0799L16.5227 17.8792C15.2682 12.969 12.7481 8.70899 9.42596 5.88262L9.09095 5.59831L7.98166 5.17113H7.97129L7.97935 5.17804C7.97014 5.21001 7.96092 5.24256 7.95199 5.27454C7.94335 5.30651 7.93413 5.33906 7.92463 5.37075C7.90734 5.43412 7.89035 5.49663 7.87364 5.56C7.85636 5.62279 7.83994 5.68588 7.82323 5.74925C7.82265 5.75271 7.8215 5.75616 7.82035 5.76019C7.81517 5.77892 7.81056 5.79793 7.80595 5.81665L7.8048 5.82069C7.795 5.85669 7.7855 5.89212 7.77685 5.92871C7.742 6.06582 7.70714 6.20322 7.67459 6.34033C7.65962 6.40313 7.64435 6.46564 7.62995 6.52786C7.62822 6.53419 7.62707 6.53995 7.62534 6.54571C7.61151 6.60736 7.59682 6.66871 7.58299 6.73036C7.56513 6.81332 7.54584 6.8957 7.52798 6.97866C7.513 7.05067 7.49715 7.12211 7.48218 7.1947C7.45884 7.30214 7.43753 7.41016 7.41592 7.51732C7.39749 7.60892 7.37992 7.70138 7.36206 7.79356C7.36148 7.79759 7.36033 7.80163 7.35975 7.80566C7.34305 7.89726 7.32547 7.98915 7.30934 8.08075C7.29321 8.17062 7.27679 8.26021 7.26239 8.3495C7.26009 8.3639 7.25778 8.3786 7.2549 8.39185C7.2405 8.47769 7.22638 8.56353 7.21313 8.64908C7.19527 8.76459 7.17713 8.87952 7.15984 8.99445C7.14947 9.06589 7.13882 9.1379 7.12845 9.20934C7.12787 9.21683 7.12672 9.22374 7.12614 9.23037C7.1152 9.30526 7.10511 9.379 7.0959 9.4539C7.08322 9.54492 7.07141 9.63624 7.06047 9.72668C7.05701 9.75175 7.05413 9.77594 7.05125 9.80043C7.04837 9.82491 7.04549 9.84911 7.04261 9.87359C7.02532 10.0211 7.00833 10.1686 6.99335 10.3166C6.99277 10.3241 6.99162 10.3322 6.99104 10.3399C6.98759 10.3702 6.98528 10.3999 6.98183 10.4298C6.97549 10.4903 6.96973 10.5505 6.96454 10.6116C6.95245 10.7294 6.94236 10.8478 6.93257 10.9662C6.92681 11.0376 6.92047 11.1096 6.91529 11.1811C6.91183 11.2269 6.90837 11.2721 6.90492 11.317C6.90261 11.3536 6.90031 11.3896 6.898 11.4262C6.89512 11.4622 6.89282 11.4988 6.89051 11.5348C6.88763 11.5771 6.88475 11.6195 6.88245 11.6612C6.88014 11.7036 6.87784 11.7454 6.87554 11.7877C6.8715 11.8444 6.86805 11.9009 6.86574 11.9577C6.86344 12.0092 6.86056 12.0616 6.85825 12.1138C6.8571 12.14 6.85537 12.1659 6.8548 12.1916C6.85422 12.2002 6.85364 12.2083 6.85364 12.2172C6.85191 12.2641 6.84961 12.3111 6.84788 12.3583C6.84788 12.3624 6.84731 12.367 6.84731 12.3716C6.84558 12.4298 6.84327 12.4877 6.84155 12.5459C6.83578 12.7135 6.83175 12.882 6.82945 13.0497C6.82772 13.1332 6.82714 13.2173 6.82599 13.3017C6.82541 13.3852 6.82484 13.4694 6.82484 13.5526C6.82484 13.6508 6.82541 13.7482 6.82657 13.8453V13.8654C6.82714 13.9242 6.82772 13.9821 6.82945 14.0409C6.82945 14.0596 6.83002 14.0774 6.8306 14.0959V14.1108C6.8306 14.1486 6.83118 14.1875 6.8329 14.2252C6.8329 14.2321 6.8329 14.239 6.83348 14.2457C6.83348 14.2549 6.83348 14.2629 6.83406 14.2719C6.83406 14.2958 6.83463 14.3188 6.83521 14.3422C6.83578 14.356 6.83636 14.3701 6.83694 14.3845C6.83694 14.3914 6.83751 14.3989 6.83751 14.4067C6.83866 14.4588 6.83982 14.5118 6.84212 14.5645C6.8427 14.5714 6.8427 14.5784 6.8427 14.5856C6.8427 14.5902 6.8427 14.5942 6.84327 14.5988C6.84327 14.6034 6.84327 14.608 6.84385 14.6126C6.84443 14.6242 6.84443 14.6365 6.84443 14.6486C6.84558 14.6772 6.84673 14.706 6.84788 14.7345C6.84903 14.763 6.85019 14.7918 6.85134 14.8203C6.85307 14.8552 6.85364 14.8906 6.85595 14.9255C6.85825 14.9822 6.86056 15.0392 6.86459 15.096C6.86574 15.1297 6.86805 15.1628 6.8692 15.1965C6.87093 15.2366 6.87381 15.2766 6.87554 15.3166C6.87611 15.3218 6.87611 15.3276 6.87669 15.3328L6.87726 15.3368C6.88072 15.3967 6.88418 15.4563 6.88879 15.5163C6.89051 15.5557 6.89339 15.5952 6.89628 15.6341C6.90146 15.7165 6.90722 15.7988 6.91413 15.8818C6.9199 15.9504 6.92508 16.0189 6.93084 16.0872C6.93142 16.0918 6.93199 16.0964 6.93199 16.101C6.9343 16.1272 6.9366 16.1531 6.93891 16.1794C6.94121 16.2056 6.94352 16.2315 6.94582 16.2577C6.94985 16.2995 6.95331 16.3412 6.95734 16.3824C6.96483 16.466 6.9729 16.5495 6.98183 16.6328C6.98644 16.6837 6.9922 16.7339 6.99738 16.7837C6.99796 16.7918 6.99911 16.7998 6.99969 16.8082C7.00142 16.8226 7.00314 16.8367 7.00487 16.8511C7.01063 16.9044 7.01639 16.9574 7.02273 17.0101C7.0308 17.0787 7.03886 17.1472 7.04779 17.2155C7.05182 17.248 7.05586 17.28 7.05989 17.3126C7.06162 17.3304 7.0645 17.3491 7.06623 17.367C7.07544 17.4384 7.08466 17.5093 7.09474 17.5807C7.09647 17.5923 7.09762 17.6035 7.09878 17.615C7.09993 17.626 7.10166 17.6366 7.10339 17.6476C7.10627 17.6721 7.10972 17.6957 7.11318 17.7196C7.11433 17.7305 7.11606 17.7418 7.11779 17.7527C7.11952 17.7631 7.12067 17.7732 7.1224 17.7835C7.12355 17.7893 7.12413 17.795 7.12528 17.8014C7.13219 17.8524 7.13968 17.9042 7.14803 17.9552C7.15725 18.0232 7.16791 18.0906 7.17886 18.1577C7.18346 18.1874 7.1875 18.2162 7.19211 18.2453C7.19614 18.2744 7.20075 18.3035 7.20593 18.3323C7.20651 18.3357 7.20708 18.3398 7.20766 18.3432C7.20881 18.3467 7.20881 18.3507 7.20939 18.3542C7.21054 18.3576 7.21112 18.3611 7.21112 18.3651L7.21227 18.3703C7.22264 18.4342 7.2333 18.4973 7.24424 18.5613C7.24655 18.5716 7.2477 18.5823 7.24943 18.5927C7.25231 18.6111 7.25519 18.6298 7.25865 18.6483C7.2621 18.6667 7.26556 18.686 7.26844 18.7044C7.26902 18.709 7.27017 18.7142 7.27132 18.7194C7.27247 18.7246 7.27363 18.7298 7.2742 18.7344C7.27651 18.7465 7.27823 18.7583 7.27996 18.7698C7.29379 18.8482 7.30848 18.9259 7.32288 19.0043C7.33383 19.0642 7.34506 19.1233 7.35658 19.1832C7.36004 19.199 7.36292 19.2146 7.3658 19.2301C7.36753 19.2388 7.36926 19.2477 7.37099 19.2563C7.37271 19.265 7.37444 19.2736 7.37617 19.2826C7.39173 19.3638 7.40815 19.4439 7.42485 19.5245C7.44098 19.6052 7.45798 19.6858 7.47526 19.7665C7.47641 19.7705 7.47699 19.7751 7.47814 19.7797C7.49197 19.846 7.50666 19.9131 7.52164 19.9799C7.52394 19.9891 7.52625 19.9978 7.52798 20.0073C7.54065 20.0649 7.55361 20.1217 7.56686 20.179L7.56744 20.1819C7.57781 20.2242 7.58732 20.2665 7.59711 20.3089C7.59884 20.3146 7.60057 20.321 7.60172 20.3267C7.60748 20.3535 7.61382 20.3806 7.62102 20.4074C7.63196 20.4549 7.64377 20.5027 7.6553 20.5503C7.67315 20.6252 7.69188 20.6995 7.71031 20.7738C7.73134 20.8573 7.75266 20.9409 7.77484 21.0247C7.81891 21.1929 7.86356 21.3614 7.91195 21.5285C7.9131 21.5331 7.91483 21.5383 7.91541 21.5435C7.93759 21.6201 7.95948 21.6961 7.98166 21.7722C8.00269 21.8454 8.03783 21.9427 8.08392 22.06C8.0989 22.0988 8.11532 22.14 8.1326 22.183C8.13433 22.1864 8.13606 22.1904 8.13778 22.1945C8.14643 22.2149 8.15507 22.2357 8.16342 22.2567C8.17782 22.291 8.19309 22.3264 8.20807 22.3624C8.21613 22.3803 8.22362 22.399 8.23198 22.4174C8.28815 22.5473 8.35094 22.6879 8.41835 22.836C8.43736 22.8777 8.45723 22.9207 8.47711 22.9636C8.50678 23.0281 8.5376 23.0935 8.56814 23.1603C8.57793 23.1825 8.58859 23.2044 8.59896 23.2266C8.61221 23.2557 8.62632 23.2848 8.64015 23.3136C8.6534 23.3427 8.66751 23.3718 8.68134 23.4006C8.70928 23.459 8.73751 23.5184 8.76545 23.5777C8.78446 23.6166 8.80319 23.6561 8.82277 23.6955C8.89018 23.8349 8.95816 23.9735 9.0247 24.1083L9.02441 24.1097Z" />
    <path d="M44.2832 13.552C44.2832 13.6503 44.2827 13.7476 44.2821 13.8447V13.8649C44.2815 13.8939 44.2815 13.9236 44.2804 13.9524C44.2804 13.9815 44.2792 14.0109 44.2786 14.04C44.2786 14.0587 44.2786 14.0766 44.2781 14.095V14.11C44.2775 14.1385 44.2769 14.1676 44.2763 14.1958C44.2758 14.205 44.2758 14.2151 44.2752 14.2243C44.2752 14.2313 44.2752 14.2382 44.2746 14.2448V14.271C44.2746 14.2949 44.274 14.318 44.2729 14.3413C44.2723 14.3551 44.2717 14.3692 44.2711 14.3836V14.4058C44.27 14.432 44.2694 14.458 44.2688 14.4847C44.2683 14.511 44.2677 14.5369 44.2665 14.5637C44.266 14.5706 44.266 14.5775 44.2654 14.5847C44.2654 14.5933 44.2654 14.6026 44.2642 14.6121C44.2637 14.6236 44.2637 14.636 44.2637 14.6481C44.2619 14.7054 44.2596 14.7624 44.2567 14.8197C44.2556 14.8546 44.2544 14.89 44.2527 14.9249C44.2498 14.9816 44.2475 15.0387 44.2441 15.0954C44.2429 15.1182 44.2418 15.1401 44.2406 15.1628L44.2389 15.1959C44.2372 15.236 44.2343 15.2754 44.2326 15.3161C44.232 15.3212 44.232 15.327 44.2314 15.3322L44.2308 15.3362C44.2285 15.3763 44.2262 15.4169 44.2233 15.4569C44.2222 15.4765 44.221 15.4958 44.2199 15.5154C44.2187 15.5353 44.2176 15.5549 44.2158 15.5747C44.2153 15.5946 44.2135 15.6142 44.2124 15.6335C44.2066 15.7159 44.2009 15.7983 44.194 15.8812C44.1214 16.0984 44.0292 16.3559 43.9137 16.6434C43.7987 16.9309 43.6611 17.2477 43.498 17.5845C42.8891 18.8424 41.7933 20.6329 40.031 22.0216L39.8178 22.1645C39.8155 22.1599 39.8115 22.1553 39.8086 22.1507C39.7268 22.0352 39.6439 21.922 39.5603 21.8099C39.4768 21.699 39.3933 21.5904 39.3071 21.4833C39.2504 21.4118 39.1928 21.3416 39.1346 21.2721C39.0202 21.1333 38.903 20.9988 38.7846 20.8674C38.7555 20.8349 38.7258 20.8023 38.6959 20.7701C38.6365 20.7061 38.5763 20.6425 38.5164 20.5802C38.4862 20.5488 38.4559 20.518 38.426 20.4875C37.3034 19.3485 36.0547 18.5581 34.715 18.1378L34.5338 18.0811L34.5848 17.8803C34.6003 17.8181 34.6168 17.7556 34.6335 17.6934C34.6467 17.6418 34.6608 17.5905 34.6747 17.539C34.6925 17.4698 34.7118 17.4007 34.7308 17.3324C34.7493 17.2633 34.7691 17.1947 34.789 17.1265C34.84 16.9459 34.8936 16.7667 34.9486 16.5878C34.9679 16.5267 34.9863 16.466 35.0054 16.4055C35.0408 16.2934 35.0768 16.182 35.1134 16.0711C35.1379 15.9967 35.1626 15.923 35.1877 15.8492C35.2061 15.7942 35.2254 15.7389 35.2444 15.6839C35.2822 15.5747 35.3211 15.4661 35.3599 15.3575C35.3798 15.3025 35.4 15.2472 35.4204 15.1922C35.4472 15.1196 35.4743 15.047 35.5017 14.975C35.5184 14.9304 35.5359 14.8851 35.5532 14.8402C35.5699 14.795 35.5875 14.7503 35.6054 14.7057C35.654 14.5804 35.7042 14.4559 35.7552 14.3318C35.7791 14.273 35.8027 14.2151 35.8272 14.1569C35.8421 14.1215 35.8574 14.0861 35.8724 14.0506C35.9055 13.9729 35.9386 13.8945 35.9729 13.8167C35.9787 13.8018 35.9856 13.7865 35.9928 13.7715C36.0107 13.7298 36.0288 13.6886 36.0472 13.6474C36.1313 13.4564 36.2183 13.2666 36.3079 13.0785C36.3399 13.0105 36.3724 12.9422 36.4056 12.8748C36.5372 12.6032 36.6732 12.3356 36.8132 12.0714C36.8829 11.9398 36.9543 11.8084 37.0263 11.6785C37.0983 11.5486 37.1715 11.4196 37.2458 11.292C37.3201 11.1638 37.395 11.0365 37.4711 10.9106C37.5238 10.8236 37.5774 10.7363 37.6312 10.6499C37.6935 10.5494 37.7565 10.4497 37.8205 10.3509C37.9 10.2279 37.9801 10.1061 38.0607 9.98564C38.142 9.86495 38.2238 9.74541 38.3067 9.62702C38.3897 9.50863 38.4738 9.39081 38.5588 9.27473C38.6121 9.20156 38.6662 9.12897 38.7195 9.05696C38.9237 8.78475 39.1329 8.51888 39.3475 8.25992C39.3996 8.19655 39.4526 8.13404 39.5053 8.07182C39.5099 8.06606 39.5145 8.0603 39.5197 8.05454C39.5523 8.01565 39.5854 7.97734 39.6191 7.93903C39.6655 7.8843 39.7124 7.83043 39.7602 7.77714C39.7864 7.74747 39.8118 7.7178 39.8386 7.689C39.8443 7.68266 39.8501 7.67575 39.8564 7.66912C39.8999 7.61987 39.944 7.5709 39.9887 7.52222C40.0299 7.47699 40.071 7.43234 40.1128 7.38769C40.1529 7.3442 40.1935 7.30128 40.2341 7.25836C40.2609 7.22927 40.2879 7.20104 40.3159 7.17252C40.332 7.15581 40.3484 7.13824 40.3646 7.12211C40.4493 7.03454 40.5345 6.94784 40.6207 6.862C40.7065 6.77616 40.7929 6.69147 40.8802 6.60822C40.9156 6.57395 40.9511 6.54024 40.9871 6.50654C41.0438 6.45325 41.1008 6.39967 41.1582 6.34696C41.1988 6.30923 41.2394 6.27207 41.28 6.23548C41.3079 6.21042 41.3356 6.18565 41.363 6.16059C41.4681 6.06726 41.5744 5.97422 41.681 5.88377L42.0154 5.59946L43.1253 5.17228L43.1267 5.17775L43.127 5.17919C43.1454 5.24372 43.163 5.30738 43.1814 5.3719C43.2157 5.49778 43.2506 5.62395 43.2831 5.7504C43.2843 5.75386 43.2849 5.75732 43.286 5.76135C43.301 5.81781 43.3157 5.8734 43.3295 5.92957C43.3649 6.06668 43.3992 6.20409 43.4323 6.3412C43.4473 6.40399 43.462 6.4665 43.477 6.52872C43.4781 6.53506 43.4799 6.54082 43.481 6.54658C43.4954 6.60822 43.5101 6.66958 43.5239 6.73122C43.5418 6.81418 43.5611 6.89656 43.5784 6.97952C43.5939 7.05154 43.6098 7.12297 43.6242 7.19556C43.6475 7.30301 43.6688 7.41103 43.691 7.51818C43.7094 7.60978 43.727 7.70225 43.7443 7.79443C43.7454 7.79846 43.746 7.80249 43.7466 7.80652C43.7552 7.85232 43.7639 7.89813 43.7722 7.94421C43.7809 7.99001 43.7889 8.03581 43.7979 8.0819C43.8134 8.17177 43.8298 8.26136 43.8448 8.35066C43.8466 8.36506 43.8494 8.37975 43.8523 8.393C43.8661 8.47884 43.8803 8.56468 43.8941 8.65023C43.897 8.66867 43.8998 8.68739 43.9021 8.70525C43.905 8.72368 43.9079 8.74241 43.9108 8.76027C43.9229 8.83862 43.9353 8.91697 43.9468 8.99532C43.9572 9.06676 43.9678 9.13877 43.9788 9.21021C43.9788 9.2177 43.9799 9.22461 43.9811 9.23123C43.9914 9.30613 44.0015 9.37987 44.0113 9.45476C44.0234 9.54579 44.0352 9.6371 44.0462 9.72755C44.0531 9.77681 44.0589 9.8252 44.064 9.87446C44.0819 10.0219 44.0983 10.1694 44.1133 10.3175C44.1179 10.3552 44.1214 10.393 44.1254 10.4307C44.1312 10.4912 44.1369 10.5514 44.1421 10.6124C44.1542 10.7303 44.1643 10.8487 44.1746 10.967C44.1804 11.0385 44.1862 11.1105 44.1919 11.1819C44.1948 11.2277 44.1983 11.273 44.2017 11.3179C44.2069 11.3905 44.2115 11.4631 44.2161 11.5357C44.2219 11.6203 44.2271 11.7045 44.2317 11.7889C44.2351 11.8456 44.2386 11.9021 44.2409 11.9588C44.2438 12.0104 44.2461 12.0628 44.2484 12.1149C44.249 12.1195 44.249 12.1236 44.2495 12.1282C44.2495 12.1322 44.2501 12.1368 44.2501 12.1409V12.1489C44.2513 12.1723 44.2524 12.1953 44.253 12.2181C44.2553 12.265 44.257 12.312 44.2588 12.3592C44.2588 12.3632 44.2593 12.3678 44.2593 12.3724C44.2611 12.4113 44.2622 12.4496 44.2634 12.4885C44.2639 12.5078 44.2651 12.5274 44.2657 12.5467C44.2668 12.5885 44.268 12.6308 44.2691 12.6726C44.2709 12.7144 44.272 12.7567 44.2726 12.7985C44.2749 12.8826 44.2766 12.9661 44.2772 13.0505C44.2789 13.1341 44.2801 13.2182 44.2807 13.3026C44.2812 13.3861 44.2818 13.4702 44.2818 13.5535L44.2832 13.552Z" />
    <path d="M29.0199 15.7824C27.9547 15.1573 26.7532 14.8428 25.5535 14.863L25.5506 14.8632C24.3503 14.8434 23.1511 15.1582 22.0865 15.7827L22.1475 14.591C22.1709 14.5795 22.1945 14.5671 22.2184 14.5568C22.2311 14.5876 22.244 14.6187 22.255 14.6492C22.9253 14.3096 23.6244 14.0717 24.3376 13.9395C24.7397 13.8646 25.1467 13.8251 25.5538 13.8199H25.5641C26.7025 13.8044 27.84 14.055 28.888 14.5565C28.9119 14.5668 28.9355 14.5792 28.9588 14.5907L29.0199 15.7824ZM16.5737 18.0799L16.3925 18.1367C16.2381 18.1848 16.0849 18.2381 15.9328 18.2968C15.906 18.3072 15.8795 18.3179 15.8527 18.3282C15.8253 18.3386 15.7983 18.3498 15.7715 18.3608C15.7228 18.3807 15.6744 18.4008 15.6263 18.4219C15.5845 18.4397 15.5422 18.4581 15.5004 18.4774C15.4586 18.4967 15.4169 18.5158 15.3751 18.5356C15.3397 18.5523 15.3048 18.5693 15.2694 18.5866C15.2345 18.6033 15.1991 18.6209 15.1637 18.6388C15.1242 18.6586 15.0842 18.6794 15.0441 18.701C15.0041 18.722 14.9646 18.7436 14.9252 18.7649C14.8857 18.7865 14.8462 18.8084 14.8068 18.8312C14.7673 18.8539 14.7279 18.8764 14.689 18.8997C14.6495 18.9231 14.6106 18.9461 14.5717 18.97C14.5277 18.9974 14.483 19.0245 14.4389 19.053C14.4058 19.074 14.3727 19.0953 14.339 19.1175C14.1852 19.2177 14.0325 19.3246 13.8821 19.4367C13.8444 19.4646 13.8067 19.4928 13.7695 19.5219C13.7228 19.5574 13.6765 19.5939 13.6301 19.6311C13.5941 19.6593 13.5581 19.6884 13.5221 19.7181C13.4861 19.7469 13.4506 19.7766 13.4152 19.8068C13.3798 19.8362 13.3443 19.8664 13.3089 19.8973C13.2827 19.9194 13.2573 19.9419 13.2311 19.9652C13.2055 19.988 13.1796 20.0105 13.1539 20.0344C13.1024 20.081 13.0511 20.128 13.0001 20.1755C12.9978 20.1772 12.9955 20.1796 12.9938 20.1819C12.9249 20.2467 12.8558 20.3135 12.7872 20.3809C12.7518 20.4158 12.7164 20.4512 12.6815 20.4866C12.6516 20.5171 12.6208 20.548 12.5905 20.5794C12.5666 20.6038 12.543 20.6286 12.5196 20.6537C12.4963 20.6782 12.4727 20.7035 12.4494 20.7286C12.4448 20.7332 12.4407 20.7372 12.4367 20.7418C12.4283 20.7513 12.4197 20.76 12.4116 20.7692C12.4018 20.7801 12.3912 20.7908 12.3814 20.8017C12.3615 20.8233 12.3416 20.8455 12.322 20.8668C12.2915 20.9011 12.2607 20.9354 12.2304 20.9703C12.2042 20.9991 12.1783 21.0287 12.1521 21.059C12.1066 21.1111 12.0608 21.1647 12.0161 21.2186C12.0084 21.2275 12.0014 21.2361 11.9945 21.2448C11.9867 21.2537 11.9793 21.2623 11.9723 21.2716C11.9433 21.3064 11.9144 21.3413 11.8859 21.3761C11.8568 21.4116 11.8286 21.447 11.8001 21.4824C11.7577 21.5363 11.7148 21.5904 11.6731 21.6449C11.6313 21.6993 11.5895 21.7546 11.5472 21.8096C11.4631 21.9217 11.3807 22.0349 11.2989 22.1504C11.2954 22.155 11.292 22.1596 11.2897 22.1642L11.0757 22.0216C9.31335 20.6332 8.21817 18.8424 7.60865 17.5845C7.5882 17.5427 7.56861 17.5009 7.54873 17.4592C7.50985 17.3768 7.47211 17.295 7.4361 17.2149C7.39952 17.1348 7.36524 17.0559 7.33212 16.9787C7.29899 16.9027 7.26817 16.8283 7.23821 16.7558C7.23764 16.7529 7.23648 16.7506 7.23533 16.7477C7.22093 16.7128 7.20624 16.678 7.19299 16.6437C7.17859 16.6077 7.16447 16.5723 7.15122 16.5374C7.13336 16.491 7.11579 16.4458 7.09851 16.4009C7.08238 16.3568 7.06596 16.3139 7.0504 16.2721C7.019 16.1874 6.98991 16.1062 6.96341 16.0296C6.94555 15.9786 6.92855 15.929 6.913 15.8815C6.90666 15.7986 6.90033 15.7162 6.89514 15.6338C6.89226 15.5949 6.88938 15.5554 6.88765 15.516C6.88304 15.4561 6.87959 15.3964 6.87613 15.3365L6.87555 15.3325C6.87498 15.3273 6.87498 15.3215 6.8744 15.3163C6.87267 15.2757 6.87037 15.2363 6.86806 15.1962C6.86691 15.1625 6.86461 15.1294 6.86346 15.0957C6.85942 15.039 6.85712 14.9819 6.85481 14.9252C6.85251 14.8903 6.85193 14.8549 6.8502 14.82C6.84905 14.7915 6.8479 14.7624 6.84675 14.7342C6.8456 14.7057 6.84444 14.6766 6.84329 14.6484C6.84329 14.6363 6.84329 14.6239 6.84272 14.6124C6.84214 14.6077 6.84214 14.6031 6.84214 14.5985L6.8427 14.5856C6.84212 14.5786 6.84156 14.5714 6.84099 14.5642C6.83868 14.5115 6.83811 14.4585 6.83638 14.4064C6.83638 14.3989 6.8358 14.3914 6.8358 14.3842C6.83523 14.3698 6.83465 14.3557 6.83407 14.3419C6.8335 14.3185 6.83292 14.2955 6.83292 14.2716C6.83235 14.2629 6.83235 14.2549 6.83235 14.2454C6.83177 14.239 6.83177 14.2321 6.83177 14.2249C6.83062 14.1872 6.83004 14.1483 6.82947 14.1106V14.0956C6.82889 14.0771 6.82831 14.059 6.82831 14.0406C6.82658 13.9821 6.82601 13.9239 6.82543 13.8651V13.845C6.82428 13.7479 6.8237 13.6505 6.8237 13.5523C6.8237 13.4694 6.82428 13.3852 6.82486 13.3014C6.82601 13.2173 6.82658 13.1332 6.82831 13.0494C6.83062 12.8817 6.83465 12.7132 6.84041 12.5456C6.84214 12.4874 6.84444 12.4295 6.84617 12.3713C6.84617 12.3667 6.84675 12.3621 6.84675 12.358C6.84848 12.3111 6.85134 12.2644 6.85364 12.2172C6.85364 12.2085 6.85366 12.2002 6.85366 12.1913C6.85424 12.1656 6.85597 12.1397 6.85712 12.1135C6.85942 12.0614 6.8623 12.0089 6.86461 11.9574C6.86749 11.9006 6.87037 11.8442 6.8744 11.7874C6.87671 11.7451 6.87901 11.7033 6.88131 11.661C6.8842 11.6192 6.88763 11.5771 6.89051 11.5348C6.89224 11.4982 6.89399 11.4619 6.89687 11.4259C6.89917 11.3893 6.90261 11.353 6.90492 11.317C6.9078 11.2724 6.9107 11.2269 6.91415 11.1808C6.91934 11.1093 6.92567 11.0373 6.93144 10.9659C6.94123 10.8475 6.95131 10.7291 6.96341 10.6113C6.96859 10.5502 6.97436 10.49 6.98069 10.4295C6.98415 10.3993 6.98645 10.3696 6.98991 10.3397C6.99106 10.3322 6.9922 10.325 6.99335 10.3166C7.00833 10.1686 7.02419 10.0208 7.04147 9.8733C7.04435 9.84882 7.04723 9.82462 7.05011 9.80014C7.05357 9.77565 7.05701 9.75175 7.06047 9.72668C7.07084 9.63624 7.08209 9.54463 7.09476 9.45361C7.10398 9.37872 7.11377 9.30497 7.12501 9.23008C7.12558 9.22374 7.12674 9.21683 7.12731 9.20905C7.13768 9.13762 7.14834 9.0656 7.15871 8.99417C7.17599 8.87923 7.19414 8.7643 7.212 8.64879C7.22525 8.56353 7.23936 8.4774 7.25377 8.39156C7.25665 8.37831 7.25895 8.36362 7.26126 8.34922C7.27624 8.25992 7.29265 8.17033 7.30821 8.08046C7.32434 7.98886 7.34191 7.89697 7.35862 7.80537C7.35919 7.80134 7.36035 7.79731 7.36092 7.79327C7.37878 7.7011 7.39635 7.60863 7.41479 7.51703C7.43639 7.40959 7.45828 7.30157 7.48104 7.19441C7.49602 7.12182 7.51186 7.05038 7.52684 6.97837C7.5447 6.89541 7.564 6.81303 7.58186 6.73007C7.59569 6.66843 7.61038 6.60707 7.6242 6.54543C7.62593 6.53967 7.62708 6.53391 7.62881 6.52757C7.64321 6.46535 7.65848 6.40284 7.67346 6.34005C7.70601 6.20293 7.74086 6.06553 7.77572 5.92842C7.78436 5.89241 7.79358 5.8564 7.80366 5.8204L7.80481 5.81637C7.81 5.79793 7.81517 5.77892 7.82035 5.76019C7.82093 5.75616 7.82094 5.75242 7.8221 5.74896C7.8388 5.68559 7.85522 5.62251 7.8725 5.55971C7.88921 5.49634 7.90621 5.43383 7.92349 5.37046C7.93271 5.33849 7.94193 5.30594 7.95086 5.27425C7.9595 5.24228 7.96871 5.20973 7.97822 5.17775L7.97015 5.17084H7.98052L9.08982 5.59802L9.42482 5.88233C12.7469 8.7087 15.2671 12.9687 16.5216 17.8789L16.5726 18.0796L16.5737 18.0799Z" />
    <path d="M38.9946 29.0936C38.9402 29.2091 38.8797 29.3189 38.8128 29.4235C38.3502 30.1508 37.6091 30.6243 36.8532 30.9645C35.9888 31.3546 35.0676 31.562 34.1907 31.9131C32.0796 32.7571 30.1566 34.282 29.0357 36.439C29.0306 36.4505 29.0242 36.4623 29.0185 36.4738C29.1403 34.736 29.8458 33.0578 30.9648 31.8365C32.0839 30.6151 33.6083 29.863 35.1744 29.7579C35.8298 29.7144 36.488 29.7795 37.1427 29.7374C37.7986 29.6957 38.4718 29.5344 38.9946 29.0936Z" />
    <path d="M22.0885 36.4735C22.0833 36.462 22.077 36.4502 22.0712 36.4387C20.9498 34.2818 19.0279 32.7568 16.9168 31.9128C16.0391 31.5617 15.1179 31.3546 14.2537 30.9642C13.4979 30.6241 12.7573 30.1511 12.2947 29.4237C12.2279 29.3192 12.1671 29.2094 12.1129 29.0933C12.636 29.5338 13.3086 29.6954 13.9645 29.7371C14.6193 29.7789 15.2775 29.7138 15.9334 29.7576C17.4989 29.8627 19.0239 30.6148 20.1424 31.8362C21.2615 33.0575 21.9667 34.7357 22.0885 36.4735Z" />
    <path d="M32.5497 22.2463C32.2654 22.7971 31.9094 23.3196 31.5577 23.8298C30.7445 25.0082 29.7467 26.0187 28.9387 27.2029C28.7581 27.467 28.5812 27.7415 28.4162 28.0252C27.8415 29.0144 27.4114 30.1174 27.4858 31.2926C27.4155 30.7643 27.344 30.2337 27.2884 29.7034C27.2455 29.2982 27.2118 28.892 27.1928 28.4873C27.162 27.8343 27.1718 27.1824 27.249 26.5375C27.4359 24.9713 28.078 23.4222 29.2633 22.5692C29.9135 22.1009 30.6831 21.8681 31.4001 21.5262C32.1159 21.1843 32.8199 20.6839 33.1281 19.8944C33.1711 20.7522 32.9213 21.5245 32.5497 22.2463Z" />
    <path d="M23.9263 28.5694C23.9058 28.9571 23.873 29.3442 23.8312 29.732C23.7762 30.2528 23.7071 30.7744 23.6374 31.2929C23.7099 30.1384 23.296 29.0536 22.7372 28.0777C22.5635 27.7752 22.3763 27.4826 22.1847 27.2029C21.3767 26.0187 20.3783 25.0082 19.5651 23.8298C19.214 23.3202 18.8594 22.7994 18.5754 22.2492C18.2027 21.5265 17.9526 20.7539 17.9955 19.895C18.3038 20.6845 19.0078 21.1849 19.7236 21.5268C20.44 21.8687 21.2096 22.1014 21.8609 22.5698C23.0457 23.4224 23.6878 24.9719 23.875 26.538C23.9551 27.2095 23.9617 27.8884 23.9263 28.5694Z" />
    <path d="M28.856 43.6121C28.4329 44.0963 27.8037 44.4264 27.1965 44.4195C26.5893 44.4114 25.9677 44.1375 25.5759 43.6224H25.5307C25.139 44.1372 24.5173 44.4114 23.9107 44.4195C23.3029 44.4264 22.6738 44.0963 22.2507 43.6121C23.1474 43.9076 24.1795 43.623 24.8477 42.8957C25.1286 42.5904 25.3343 42.1277 25.2262 41.708C24.7014 41.4347 24.2365 41.019 23.8848 40.5066C23.7419 40.298 23.6114 40.0382 23.6748 39.7862C23.7298 39.5661 23.9162 39.4218 24.0968 39.3149C24.1653 39.2743 24.2362 39.2366 24.3071 39.2023C24.6084 39.0531 24.9287 38.9551 25.2562 38.9113C25.283 38.9073 25.3089 38.9044 25.3351 38.9021C25.4008 38.8946 25.465 38.89 25.5307 38.8871H25.5777C25.6428 38.89 25.7076 38.8946 25.7727 38.9021C25.7989 38.9044 25.8254 38.9073 25.8522 38.9113C26.1791 38.9548 26.4994 39.0531 26.8007 39.2023C26.8722 39.2366 26.9425 39.2743 27.0113 39.3149C27.1919 39.4218 27.3777 39.5664 27.4327 39.7862C27.4961 40.0382 27.3653 40.298 27.2227 40.5066C26.871 41.019 26.4067 41.4347 25.8813 41.708C25.7733 42.1277 25.9789 42.5904 26.2604 42.8957C26.9283 43.623 27.959 43.9073 28.856 43.6121Z" />
    <path d="M15.0597 35.8732C14.8555 35.8865 14.6515 35.8842 14.4502 35.8681C13.2876 35.7742 12.1996 35.2047 11.4801 34.3397C11.7203 34.4894 12.0135 34.5381 12.3074 34.5445C12.3805 34.5468 12.4537 34.5456 12.5263 34.5433C12.7052 34.5375 12.8843 34.5217 13.0632 34.5148H13.0661C13.2496 34.5073 13.4325 34.509 13.6128 34.5364C14.3321 34.6467 14.9425 35.2099 15.0597 35.8732Z" />
    <path d="M39.6133 34.3397C39.6064 34.3477 39.5995 34.3564 39.5917 34.3647C38.8754 35.2122 37.8026 35.7707 36.6568 35.8669C36.4508 35.8845 36.2423 35.8865 36.0334 35.8732C36.1507 35.2099 36.7613 34.6467 37.4806 34.5364C37.6641 34.5085 37.8493 34.5073 38.0354 34.5148C38.2125 34.5223 38.39 34.5375 38.5671 34.5433C38.642 34.5462 38.7175 34.5468 38.793 34.5445C39.0845 34.537 39.3754 34.488 39.6133 34.3397Z" />
  </svg>
